<?xml version="1.0" encoding="UTF-8"?><svg id="Layer_1" xmlns="http://www.w3.org/2000/svg" viewBox="0 0 1000 609.63"><defs><style>.cls-1,.cls-2{fill:#faf9f7;stroke-width:0px;}.cls-2{fill-rule:evenodd;}</style></defs><path class="cls-2" d="m196.08,494.62l-2.1-.43c-.93,2.78-3.4,6.3-7.9,6.36l-12.23.18-.31-13.65v-4.38l16.8.31v-3.83l-16.8.31v-17.91l12.47.37c3.09.06,4.26,1.85,4.94,5.56.68,0,1.79.18,2.59-.06v-9.02h-31.37c-.31.8-.37,1.05-.31,1.54l4.63,1.61c.99.37,1.48,1.48,1.48,2.47v22.97l-.19,10.07c-.06,1.73-.99,3.21-2.41,3.58l-4.2,1.11c-.06.8.06,1.24.18,2.16h33.59l1.11-9.32Z"/><path class="cls-2" d="m231,496.41l-2.16-.37c-.8,2.35-2.59,4.76-5.87,4.82l-9.82.12-.18-10.13v-2.35l14.45.25v-3.46l-14.45.25v-12.41l10.25.25c2.1.06,2.9,1.17,3.46,4.2.8.06,1.3.19,2.28-.12v-7.23h-25.44c-.37.93-.37.99-.31,1.61l3.77,1.3c.56.18.86.8.86,1.48v16.18l-.12,7.84c0,1.67-1.11,2.35-2.47,2.65l-2.59.62c-.06.87,0,1.05.19,2.04h27.17l.99-7.53Z"/><path class="cls-2" d="m263.09,494.81c0-11.42-18.53-10.68-18.53-16.86,0-3.77,3.03-5.31,7.35-5.31,3.46,0,7.16,2.96,7.9,6.61h2.16l-.06-8.09c-2.59-1.3-7.6-1.61-10.13-1.61-5.93,0-11.73,3.64-11.73,9.76,0,11.3,18.15,9.69,18.15,16.73,0,3.95-3.33,5.74-7.1,5.74-5.31,0-8.89-3.15-9.51-7.72h-2.41l-.43,8.58c3.4,1.42,7.41,2.16,10.87,2.16,6.48,0,13.46-2.78,13.46-10Z"/><path class="cls-2" d="m299.38,477.7v-7.47h-32.36v7.47c.93.25,1.17.31,1.98.19.62-2.96,1.67-4.63,3.64-4.63h7.97v17.6l-.06,6.67c0,1.73-.62,3.15-1.73,3.4l-3.77.93c-.06.93,0,1.11.19,2.1h15.93c.25-.8.31-1.36.31-2.1l-4.82-.87c-.62-.12-.74-.31-.74-1.3l-.18-8.83v-17.6h7.47c2.41,0,3.58,1.54,4.2,4.69,1.11.06.99,0,1.98-.25Z"/><path class="cls-2" d="m318.19,501.97l-4.07-.86c-.8-.12-.93-.31-.93-1.3l-.12-8.95v-15.13c0-1.48.56-2.96,1.79-3.21l2.22-.49c.06-.93,0-.74-.19-1.79h-12.97c-.31.87-.31.93-.18,1.54l2.47.93c1.11.43,1.73,1.36,1.73,3.21v14.94l-.06,7.66c0,1.79-.93,2.53-2.29,3.03l-2.04.74c-.06.86.06.68.19,1.67h14.14c.25-.8.31-1.3.31-1.98Z"/><path class="cls-2" d="m401.33,501.97l-2.78-1.36c-1.05-.43-2.04-1.73-2.22-3.09l-3.83-31.62c-.31-2.78.74-4.38,2.22-4.88l3.03-1.05c.06-.8-.06-.62-.25-1.54h-10.74l-11.18,28.47-3.4,9.26h-.56l-3.4-10.25-9.94-27.48h-11.79c-.19.68-.25,1.11-.25,1.67l3.89,1.3c1.17.43,2.04,2.04,1.79,3.46l-5,31.31c-.31,1.91-1.54,3.95-3.27,4.82l-2.22,1.11c-.06.8.06.93.25,1.85h15.13c.25-.68.25-1.48.25-2.04l-5.8-1.85c-.68-.18-.87-.86-.68-1.98l4.32-28.65.12-3.09h.37l13.65,38.9,3.64-1.17,14.08-37.23h.37l.19,3.27,2.59,24.39c.25,2.35.43,6.05-2.22,6.79l-2.72.8c0,.8.12.93.25,1.85h15.87c.19-.68.25-1.42.25-1.98Z"/><path class="cls-2" d="m426.37,488.32h-10.37l2.78-6.24,2.96-7.35h.19l2.1,7.41,2.35,6.17Zm12.78,13.96l-.93-.74c-.93-.68-1.67-2.1-2.47-4.08l-11.18-28.22-3.77,1.05-12.29,26.92c-.68,1.48-1.54,2.84-2.35,3.64l-1.3,1.3c-.06.8-.06.74.12,1.79h10.13c.25-.8.31-1.17.31-1.79l-2.47-.93c-1.17-.43-1.91-2.04-1.23-3.46l2.96-6.61h12.72l2.72,7.22c.43,1.11-.06,1.98-1.05,2.35l-2.53.99c-.06.93,0,1.23.19,2.22h12.1c.25-.8.31-1.05.31-1.67Zm-19.95-44.46c0-.8-3.09-3.83-3.83-3.83s-3.83,2.96-3.83,3.83c0,.74,3.03,3.83,3.83,3.83.86,0,3.83-3.21,3.83-3.83Zm14.7,0c0-.8-3.09-3.83-3.83-3.83s-3.83,2.96-3.83,3.83c0,.74,3.03,3.83,3.83,3.83.86,0,3.83-3.21,3.83-3.83Z"/><path class="cls-2" d="m472.24,496.41l-1.91-.37c-.74,2.22-2.41,4.2-5.56,4.63l-10.13.18-.25-10v-16.67c0-.68.06-1.05.74-1.3.93-.31,2.9-.74,3.33-.8.06-.93,0-.86-.18-1.85h-13.09c-.25.8-.31.99-.31,1.67l2.84.86c.99.31,1.61,1.11,1.61,2.78v15.38l-.12,7.72c-.06,1.85-1.24,2.47-2.72,2.78l-2.1.49c-.06.93,0,1.05.19,2.04h26.67l.99-7.53Z"/><path class="cls-2" d="m510.38,472.02c0-.93,0-.74-.19-1.79h-13.09c-.31.93-.12.8-.12,1.67l2.84.93c1.11.31,1.85,1.17,1.85,2.59v16.43c0,7.22-4.08,9.63-9.08,9.63-4.01,0-9.01-2.1-9.01-8.52v-19.02c0-.74.19-.99.93-1.11l3.03-.62q.06-.93-.12-1.98h-13.4c-.25.8-.31.99-.31,1.67l2.78.86c.99.31,1.61,1.05,1.61,2.29v17.35c0,9.82,7.9,12.16,14.51,12.16,6.05,0,14.08-2.59,14.08-13.4v-16.8c0-1.11.56-1.36,1.05-1.48l2.66-.86Z"/><path class="cls-2" d="m552.09,501.72l-4.94-1.05c-1.3-.25-1.54-.68-1.54-2.22l-.19-11.36v-21.43c0-1.98.74-4.32,2.72-4.76l2.53-.55c.06-.8,0-.99-.19-1.91h-16.18c-.19.68-.19,1.11-.06,1.67l2.47.93c2.53.87,3.09,2.84,3.09,4.82v21.24l-.12,9.45c-.06,1.85-.74,3.64-2.35,4.26l-3.27,1.3c-.06.8.06.93.18,1.85h17.54c.25-.68.31-1.67.31-2.22Z"/><path class="cls-2" d="m595.23,471.83c.06-.93-.06-.74-.19-1.61h-12.23c-.25.8-.31.99-.31,1.67l3.27,1.11c.8.25,1.48,1.54,1.48,2.59l.06,16.05.37,4.14h-.19l-18.71-25.56h-9.2c-.31.87-.19.8-.19,1.67l2.53.8c1.05.31,1.73,1.05,1.73,2.35v15.81l-.12,6.79c0,1.48-.74,3.21-1.98,3.58l-3.03.93c-.06.86.06.8.18,1.79h13.15c.31-.8.31-1.24.31-1.91l-4.26-1.42c-.86-.25-.86-.43-.93-1.42l-.12-8.34v-11.92l-.49-2.9h.25l20.81,29.15,3.09-1.36v-28.22c0-1.3.74-2.66,1.67-2.9l3.03-.87Z"/><path class="cls-2" d="m626.95,494.81c0-11.42-18.53-10.68-18.53-16.86,0-3.77,3.03-5.31,7.35-5.31,3.46,0,7.16,2.96,7.9,6.61h2.16l-.06-8.09c-2.59-1.3-7.6-1.61-10.13-1.61-5.93,0-11.73,3.64-11.73,9.76,0,11.3,18.15,9.69,18.15,16.73,0,3.95-3.33,5.74-7.1,5.74-5.31,0-8.89-3.15-9.51-7.72h-2.41l-.43,8.58c3.4,1.42,7.41,2.16,10.87,2.16,6.48,0,13.46-2.78,13.46-10Z"/><path class="cls-2" d="m663.24,477.7v-7.47h-32.36v7.47c.93.25,1.17.31,1.98.19.62-2.96,1.67-4.63,3.64-4.63h7.97v17.6l-.06,6.67c0,1.73-.62,3.15-1.73,3.4l-3.77.93c-.06.93,0,1.11.19,2.1h15.93c.25-.8.31-1.36.31-2.1l-4.82-.87c-.62-.12-.74-.31-.74-1.3l-.18-8.83v-17.6h7.47c2.41,0,3.58,1.54,4.2,4.69,1.11.06.99,0,1.98-.25Z"/><path class="cls-2" d="m682.05,501.97l-4.07-.86c-.8-.12-.93-.31-.93-1.3l-.12-8.95v-15.13c0-1.48.56-2.96,1.79-3.21l2.22-.49c.06-.93,0-.74-.19-1.79h-12.97c-.31.87-.31.93-.18,1.54l2.47.93c1.11.43,1.73,1.36,1.73,3.21v14.94l-.06,7.66c0,1.79-.93,2.53-2.29,3.03l-2.04.74c-.06.86.06.68.19,1.67h14.14c.25-.8.31-1.3.31-1.98Z"/><path class="cls-2" d="m718.58,477.7v-7.47h-32.36v7.47c.93.25,1.17.31,1.98.19.62-2.96,1.67-4.63,3.64-4.63h7.97v17.6l-.06,6.67c0,1.73-.62,3.15-1.73,3.4l-3.77.93c-.06.93,0,1.11.19,2.1h15.93c.25-.8.31-1.36.31-2.1l-4.82-.87c-.62-.12-.74-.31-.74-1.3l-.18-8.83v-17.6h7.47c2.41,0,3.58,1.54,4.2,4.69,1.11.06.99,0,1.98-.25Z"/><path class="cls-2" d="m759.06,472.02c0-.93,0-.74-.19-1.79h-13.09c-.31.93-.12.8-.12,1.67l2.84.93c1.11.31,1.85,1.17,1.85,2.59v16.43c0,7.22-4.08,9.63-9.08,9.63-4.01,0-9.02-2.1-9.02-8.52v-19.02c0-.74.19-.99.93-1.11l3.03-.62q.06-.93-.12-1.98h-13.4c-.25.8-.31.99-.31,1.67l2.78.86c.99.31,1.61,1.05,1.61,2.29v17.35c0,9.82,7.9,12.16,14.51,12.16,6.05,0,14.08-2.59,14.08-13.4v-16.8c0-1.11.56-1.36,1.05-1.48l2.66-.86Z"/><path class="cls-2" d="m800.66,472.02c0-.93,0-.74-.19-1.79h-13.09c-.31.93-.12.8-.12,1.67l2.84.93c1.11.31,1.85,1.17,1.85,2.59v16.43c0,7.22-4.08,9.63-9.08,9.63-4.01,0-9.02-2.1-9.02-8.52v-19.02c0-.74.19-.99.93-1.11l3.03-.62q.06-.93-.12-1.98h-13.4c-.25.8-.31.99-.31,1.67l2.78.86c.99.31,1.61,1.05,1.61,2.29v17.35c0,9.82,7.9,12.16,14.51,12.16,6.05,0,14.08-2.59,14.08-13.4v-16.8c0-1.11.56-1.36,1.05-1.48l2.66-.86Z"/><path class="cls-2" d="m837.57,477.7v-7.47h-32.36v7.47c.93.25,1.17.31,1.98.19.62-2.96,1.67-4.63,3.64-4.63h7.97v17.6l-.06,6.67c0,1.73-.62,3.15-1.73,3.4l-3.77.93c-.06.93,0,1.11.19,2.1h15.93c.25-.8.31-1.36.31-2.1l-4.82-.87c-.62-.12-.74-.31-.74-1.3l-.18-8.83v-17.6h7.47c2.41,0,3.58,1.54,4.2,4.69,1.11.06.99,0,1.98-.25Z"/><polygon class="cls-2" points="179.05 529.85 168.3 529.85 168.3 550.54 179.25 550.54 179.25 548.73 170.46 548.73 170.46 540.83 176.64 540.83 176.64 539.02 170.46 539.02 170.46 531.66 179.05 531.66 179.05 529.85"/><path class="cls-2" d="m194.89,536.63c-1.52-1.09-3.05-1.78-4.97-1.78-2.67,0-4.74,1.81-4.74,4.05,0,2.76,2.53,3.79,4.71,4.63,1.58.6,3.19,1.15,3.19,3.16,0,1.55-1.24,2.36-2.67,2.36-1.81,0-3.79-1.29-5-2.59l-1.18,1.72c1.7,1.52,3.99,2.67,6.32,2.67s4.68-1.72,4.68-4.25c0-3.05-2.53-4.05-4.94-4.94-1.18-.43-2.96-1.18-2.96-2.67,0-1.38,1.21-2.33,2.5-2.33,1.55,0,2.9.86,4.11,1.72l.95-1.75Z"/><path class="cls-2" d="m212.07,535.17h-5.49v-4.71h-2.16v4.71h-3.31v1.81h3.31v8.08c0,4.6,1.58,5.81,4.08,5.81s4.34-1.78,5.37-4l-2.07-.52c-.6,1.35-1.61,2.7-3.25,2.7-1.95,0-1.98-1.81-1.98-3.31v-8.77h5.49v-1.81Z"/><path class="cls-2" d="m224.66,549.05c-3.36,0-3.94-3.54-3.94-6.18s.58-6.21,3.94-6.21,3.97,3.56,3.97,6.21-.6,6.18-3.97,6.18Zm0,1.81c2.96,0,6.12-2.04,6.12-7.99,0-2.5-.69-8.02-6.12-8.02-2.93,0-6.09,2.07-6.09,8.02s3.42,7.99,6.09,7.99Z"/><path class="cls-2" d="m238.63,544.13c0-5.4,2.56-7.47,4.6-7.47,1.9,0,1.9,2.21,1.9,3.68v10.2h2.16v-10.83c0-2.62-1.27-4.86-3.71-4.86-2.16,0-4.14,1.32-5.23,3.13l-.49-2.82h-2.07c.57,2.44.69,5.06.69,7.64v7.73h2.16v-6.41Z"/><path class="cls-2" d="m259.46,529.45c-1.01,0-1.81.78-1.81,1.81s.8,1.81,1.81,1.81,1.81-.78,1.81-1.81-.8-1.81-1.81-1.81Zm-1.01,21.09h2.16v-15.38h-6.52v1.81h4.37v13.57Z"/><path class="cls-2" d="m278.78,546.4c-.89,1.24-1.9,2.64-3.56,2.64s-2.41-1.67-2.41-3.1c0-1.95.86-3.85,3.05-3.85,1.03,0,2.01.35,2.93.75v3.56Zm-6.5-8.59c1.24-.52,2.5-1.15,3.85-1.15,1.61,0,2.64,1.21,2.64,2.9v1.47c-.98-.4-2.07-.75-3.22-.75-3.1,0-4.91,2.59-4.91,5.55,0,2.73,1.64,5.03,4.57,5.03,1.61,0,2.79-.63,3.82-1.87l.55,1.93,2.01-.26c-.46-1.32-.66-2.76-.66-4.17v-6.67c0-2.56-1.78-4.97-4.71-4.97-1.61,0-2.96.49-4.43,1.06l.49,1.9Z"/><path class="cls-2" d="m290.36,544.13c0-5.4,2.56-7.47,4.6-7.47,1.9,0,1.9,2.21,1.9,3.68v10.2h2.16v-10.83c0-2.62-1.26-4.86-3.71-4.86-2.16,0-4.14,1.32-5.23,3.13l-.49-2.82h-2.07c.57,2.44.69,5.06.69,7.64v7.73h2.16v-6.41Z"/><polygon class="cls-2" points="332 529.85 324.24 529.85 324.24 531.66 327.03 531.66 327.03 548.73 324.24 548.73 324.24 550.54 332 550.54 332 548.73 329.18 548.73 329.18 531.66 332 531.66 332 529.85"/><path class="cls-2" d="m342.09,544.13c0-5.4,2.56-7.47,4.6-7.47,1.9,0,1.9,2.21,1.9,3.68v10.2h2.16v-10.83c0-2.62-1.26-4.86-3.71-4.86-2.16,0-4.14,1.32-5.23,3.13l-.49-2.82h-2.07c.57,2.44.69,5.06.69,7.64v7.73h2.16v-6.41Z"/><path class="cls-2" d="m367.32,536.63c-1.52-1.09-3.05-1.78-4.97-1.78-2.67,0-4.74,1.81-4.74,4.05,0,2.76,2.53,3.79,4.71,4.63,1.58.6,3.19,1.15,3.19,3.16,0,1.55-1.24,2.36-2.67,2.36-1.81,0-3.79-1.29-5-2.59l-1.18,1.72c1.69,1.52,3.99,2.67,6.32,2.67s4.68-1.72,4.68-4.25c0-3.05-2.53-4.05-4.94-4.94-1.18-.43-2.96-1.18-2.96-2.67,0-1.38,1.21-2.33,2.5-2.33,1.55,0,2.9.86,4.11,1.72l.95-1.75Z"/><path class="cls-2" d="m384.51,535.17h-5.49v-4.71h-2.16v4.71h-3.31v1.81h3.31v8.08c0,4.6,1.58,5.81,4.08,5.81s4.34-1.78,5.37-4l-2.07-.52c-.6,1.35-1.61,2.7-3.25,2.7-1.95,0-1.98-1.81-1.98-3.31v-8.77h5.49v-1.81Z"/><path class="cls-2" d="m397.41,529.45c-1.01,0-1.81.78-1.81,1.81s.8,1.81,1.81,1.81,1.81-.78,1.81-1.81-.8-1.81-1.81-1.81Zm-1.01,21.09h2.15v-15.38h-6.52v1.81h4.37v13.57Z"/><path class="cls-2" d="m418.99,535.17h-5.49v-4.71h-2.16v4.71h-3.31v1.81h3.31v8.08c0,4.6,1.58,5.81,4.08,5.81s4.34-1.78,5.37-4l-2.07-.52c-.6,1.35-1.61,2.7-3.25,2.7-1.95,0-1.98-1.81-1.98-3.31v-8.77h5.49v-1.81Z"/><path class="cls-2" d="m434.89,541.46c0,5.2-2.47,7.59-4.6,7.59-1.9,0-1.9-2.39-1.9-3.82v-10.06h-2.16v10.69c0,2.67,1.15,5,3.88,5,1.98,0,4.05-1.58,5.06-3.28l.49,2.96h2.04c-.6-2.62-.66-5.26-.66-7.93v-7.44h-2.16v6.29Z"/><path class="cls-2" d="m453.48,535.17h-5.49v-4.71h-2.16v4.71h-3.31v1.81h3.31v8.08c0,4.6,1.58,5.81,4.08,5.81s4.34-1.78,5.37-4l-2.07-.52c-.6,1.35-1.61,2.7-3.25,2.7-1.95,0-1.98-1.81-1.98-3.31v-8.77h5.49v-1.81Z"/><path class="cls-2" d="m462.07,541.6c.57-3.1,1.75-4.94,4.17-4.94s3.85,2.41,3.94,4.94h-8.1Zm10.26,1.81v-1.18c0-1.67-.8-7.39-5.92-7.39-4.6,0-6.47,4.08-6.47,8.1s1.81,7.9,6.35,7.9c2.13,0,3.97-.66,5.89-1.52l-.92-1.93c-1.41.86-3.1,1.64-4.8,1.64-2.36,0-4.25-1.41-4.37-5.63h10.23Z"/><path class="cls-2" d="m500.55,549.05c-3.36,0-3.94-3.54-3.94-6.18s.57-6.21,3.94-6.21,3.97,3.56,3.97,6.21-.6,6.18-3.97,6.18Zm0,1.81c2.96,0,6.12-2.04,6.12-7.99,0-2.5-.69-8.02-6.12-8.02-2.93,0-6.09,2.07-6.09,8.02s3.42,7.99,6.09,7.99Z"/><path class="cls-2" d="m524.55,530.51c-1.26-.57-2.64-1.06-4.05-1.06-2.27,0-4.74,1.58-4.74,5.23v1.47h-3.82v1.81h3.82v12.59h2.16v-12.59h4.94v-1.81h-4.94v-1.72c0-1.98.83-3.16,2.73-3.16,1.32,0,2.7.92,3.91,1.44v-2.18Z"/><polygon class="cls-2" points="548.69 529.85 546.54 529.85 546.54 550.54 548.69 550.54 548.69 540.71 555.88 540.71 555.88 550.54 558.03 550.54 558.03 529.85 555.88 529.85 555.88 538.9 548.69 538.9 548.69 529.85"/><path class="cls-2" d="m569.84,529.45c-1.01,0-1.81.78-1.81,1.81s.8,1.81,1.81,1.81,1.81-.78,1.81-1.81-.8-1.81-1.81-1.81Zm-1.01,21.09h2.16v-15.38h-6.52v1.81h4.37v13.57Z"/><path class="cls-2" d="m591.48,536.63c-1.52-1.09-3.05-1.78-4.97-1.78-2.67,0-4.74,1.81-4.74,4.05,0,2.76,2.53,3.79,4.71,4.63,1.58.6,3.19,1.15,3.19,3.16,0,1.55-1.24,2.36-2.67,2.36-1.81,0-3.79-1.29-5-2.59l-1.18,1.72c1.69,1.52,3.99,2.67,6.32,2.67s4.68-1.72,4.68-4.25c0-3.05-2.53-4.05-4.94-4.94-1.18-.43-2.96-1.18-2.96-2.67,0-1.38,1.21-2.33,2.5-2.33,1.55,0,2.9.86,4.11,1.72l.95-1.75Z"/><path class="cls-2" d="m608.67,535.17h-5.49v-4.71h-2.16v4.71h-3.31v1.81h3.31v8.08c0,4.6,1.58,5.81,4.08,5.81s4.34-1.78,5.37-4l-2.07-.52c-.6,1.35-1.61,2.7-3.25,2.7-1.95,0-1.98-1.81-1.98-3.31v-8.77h5.49v-1.81Z"/><path class="cls-2" d="m621.26,549.05c-3.36,0-3.94-3.54-3.94-6.18s.58-6.21,3.94-6.21,3.97,3.56,3.97,6.21-.6,6.18-3.97,6.18Zm0,1.81c2.96,0,6.12-2.04,6.12-7.99,0-2.5-.69-8.02-6.12-8.02-2.93,0-6.09,2.07-6.09,8.02s3.42,7.99,6.09,7.99Z"/><path class="cls-2" d="m636.55,544.13c0-5.06,2.9-7.47,4.48-7.47s1.47,2.18,1.52,3.33h2.16c0-2.33-.69-5.14-3.56-5.14-2.3,0-3.59,1.44-4.77,3.25l-.49-2.93h-2.1c.4,1.93.6,3.99.6,6.55v8.82h2.16v-6.41Z"/><path class="cls-2" d="m656.06,529.45c-1.01,0-1.81.78-1.81,1.81s.8,1.81,1.81,1.81,1.81-.78,1.81-1.81-.8-1.81-1.81-1.81Zm-1.01,21.09h2.16v-15.38h-6.52v1.81h4.37v13.57Z"/><path class="cls-2" d="m677.87,546.52c-1.03,1.24-2.36,2.53-4.05,2.53-1.98,0-4.45-1.44-4.45-6.24,0-4.54,2.21-6.15,4.4-6.15,1.9,0,3.02,1.29,3.79,2.84l1.87-1.24c-1.35-2.04-3.13-3.42-5.66-3.42-3.07,0-6.55,2.01-6.55,8.16s3.79,7.85,6.64,7.85c2.39,0,3.94-1.15,5.49-2.82l-1.47-1.52Z"/><path class="cls-2" d="m692.62,546.4c-.89,1.24-1.9,2.64-3.56,2.64s-2.41-1.67-2.41-3.1c0-1.95.86-3.85,3.05-3.85,1.03,0,2.01.35,2.93.75v3.56Zm-6.5-8.59c1.24-.52,2.5-1.15,3.85-1.15,1.61,0,2.64,1.21,2.64,2.9v1.47c-.98-.4-2.07-.75-3.22-.75-3.1,0-4.91,2.59-4.91,5.55,0,2.73,1.64,5.03,4.57,5.03,1.61,0,2.79-.63,3.82-1.87l.55,1.93,2.01-.26c-.46-1.32-.66-2.76-.66-4.17v-6.67c0-2.56-1.78-4.97-4.71-4.97-1.61,0-2.96.49-4.43,1.06l.49,1.9Z"/><polygon class="cls-2" points="706.55 550.54 708.71 550.54 708.71 529.22 702.19 529.22 702.19 531.03 706.55 531.03 706.55 550.54"/><polygon class="cls-2" points="741.96 540.17 737.62 529.85 735.52 529.85 735.52 550.54 737.68 550.54 737.68 534.85 737.73 534.79 741.96 544.94 746.21 534.79 746.27 534.79 746.27 550.54 748.43 550.54 748.43 529.85 746.3 529.85 741.96 540.17"/><path class="cls-2" d="m755.21,541.6c.57-3.1,1.75-4.94,4.17-4.94s3.85,2.41,3.94,4.94h-8.1Zm10.26,1.81v-1.18c0-1.67-.8-7.39-5.92-7.39-4.6,0-6.47,4.08-6.47,8.1s1.81,7.9,6.35,7.9c2.13,0,3.97-.66,5.89-1.52l-.92-1.93c-1.41.86-3.1,1.64-4.8,1.64-2.36,0-4.25-1.41-4.37-5.63h10.23Z"/><path class="cls-2" d="m769.78,550.54h2.16v-12.01c.4-.95,1.44-1.87,2.47-1.87.98,0,1.21.95,1.21,1.75v12.13h2.16v-12.3c.46-.8,1.29-1.61,2.27-1.61.86,0,1.41.57,1.41,1.61v12.3h2.16v-12.3c0-2.07-1.32-3.42-3.39-3.42-1.26,0-2.07.63-2.96,1.44-.83-1.06-1.21-1.41-2.62-1.41-1.29,0-2.1.57-3.02,1.38l-.32-1.38h-2.16c.34,1.61.63,2.99.63,5.09v10.61Z"/><path class="cls-2" d="m793.69,549.05c-3.36,0-3.94-3.54-3.94-6.18s.57-6.21,3.94-6.21,3.97,3.56,3.97,6.21-.6,6.18-3.97,6.18Zm0,1.81c2.96,0,6.12-2.04,6.12-7.99,0-2.5-.69-8.02-6.12-8.02-2.93,0-6.09,2.07-6.09,8.02s3.42,7.99,6.09,7.99Z"/><path class="cls-2" d="m808.98,544.13c0-5.06,2.9-7.47,4.48-7.47s1.47,2.18,1.52,3.33h2.16c0-2.33-.69-5.14-3.56-5.14-2.3,0-3.59,1.44-4.77,3.25l-.49-2.93h-2.1c.4,1.93.6,3.99.6,6.55v8.82h2.16v-6.41Z"/><path class="cls-2" d="m832.34,535.17l-3.99,10.46-3.74-10.46h-2.33l4.94,13.34-1.01,2.33c-.4.92-1.12,2.59-2.33,2.59s-1.75-1.55-2.1-2.47l-1.81.95c.55,1.81,1.93,3.33,3.91,3.33,2.82,0,4.2-3.42,5.06-5.63l5.69-14.43h-2.3Z"/><rect class="cls-1" x="164.13" y="517.77" width="674.7" height="1.75"/><path class="cls-2" d="m893.86,296c-.03,1.11.81.66,1.01-1.33.2-1.99.17-.94-1.25-.67,0,0,.27.9.24,2Z"/><path class="cls-2" d="m898,293.34c-1-.98-1.26-2.41-2.15-2.28-.89.13,3.15,3.26,2.15,2.28Z"/><path class="cls-2" d="m897.8,289.69c-.4-1.6,1.07-1.71.2-1.89,0,0,.2,3.49-.2,1.89Z"/><path class="cls-2" d="m901.91,289.82c2.07-.41.53-3.31.05-1.74-.48,1.57-2.12,2.15-.05,1.74Z"/><path class="cls-2" d="m901.26,286.79c1.48-.27.6-.46-1.01-.82,0,0-.47,1.09,1.01.82Z"/><path class="cls-2" d="m888.96,295.46c-.71-.02.25,1.38.25,1.38,0,0,2.01-1.16,1.16-1.18,0,0-.7-.17-1.41-.2Z"/><path class="cls-2" d="m891.99,293.39c-1.67-1.12,1.06-2.56.49-2.57,0,0,1.18,3.69-.49,2.57Z"/><path class="cls-2" d="m893.52,288.86c-1.31.11,3.96,1.34,3.26,1.32s-.68-1.09-.95-1.71c0,0-1,.27-2.31.39Z"/><path class="cls-2" d="m906.02,285.79c.97.03-3.38-1.33-3.38-1.33,0,0,2.41,1.3,3.38,1.33Z"/><path class="cls-2" d="m894.95,280.2s-.12-1.75-.92-1.95l.92,1.95Z"/><path class="cls-2" d="m897.25,285.52s-.59-2.29-1.57-2.15l1.57,2.15Z"/><path class="cls-2" d="m903.97,283.63s-.63-.89-1.77-.58l1.77.58Z"/><path class="cls-2" d="m899.49,283.92c3.06,1.14.99-.67.57-2.96-.43-2.29-1.15.32-3.29,1.3,0,0-.34.51,2.72,1.66Z"/><path class="cls-2" d="m901.96,279.54c.42,2.46-.54,1.91,1.57,2.15,2.11.24,1.85-2.22.54-2.08-1.3.13-1.13-.21-3.21-1.67,0,0,.67-.85,1.1,1.61Z"/><path class="cls-2" d="m895.94,274.34c1.14-.57.58-.71,1.71-.92,1.13-.21.93-1.3-1.45-.53,0,0-1.4,2.01-.26,1.44Z"/><path class="cls-2" d="m898.79,276.97c1.59-.68.02-.73-1.9-.42,0,0,.31,1.1,1.9.42Z"/><path class="cls-2" d="m902.8,278.3c-1.01-.03-1.65-1.26-.38-2.55,1.27-1.29.13-.84-1.67-.66,0,0,3.06,3.24,2.05,3.21Z"/><path class="cls-2" d="m886.48,304.09c-.28,0-.45-.34-.1-.7.35-.35.04-.23-.46-.18,0,0,.84.89.56.88Z"/><path class="cls-2" d="m897.02,271.72c-1.11-.64-.76-.87.61-1.8,1.37-.93-2.37.53-4.42,1.32,0,0,4.92,1.12,3.81.48Z"/><path class="cls-2" d="m896.45,280.41c-.44-.38.02-.73,2.5-.89,2.48-.17-2.88-1.78-3.68-1.32-.8.46,1.62,2.59,1.18,2.21Z"/><path class="cls-2" d="m891.43,274.69c.43.74,3.52,3.01,2.08,2.12s-.6-2.92-1.94-3.33c0,0-.57.47-.14,1.21Z"/><path class="cls-2" d="m896.12,275.8c-1.67-.78-.1-.49.92-.82,1.02-.33-1.54-1.26-3.11-1.31,0,0,3.86,2.9,2.19,2.12Z"/><path class="cls-2" d="m886.7,306.35c-.44-.21-.03-.13.24-.22.27-.09-.41-.33-.82-.35,0,0,1.02.77.58.56Z"/><path class="cls-2" d="m891.11,269.96s3.24.82,1.91.06c-1.33-.77-.26-2.79-1.06-2.57-.79.22-.85,2.51-.85,2.51Z"/><path class="cls-2" d="m887.43,299.4s.82-.5.4-.39c-.41.12-.56-.52-.68-.31-.12.21.28.7.28.7Z"/><path class="cls-2" d="m887.66,272.64c2.35.43,3.68,1.08,2.24.19-1.44-.89-.41-1.46-2.55-1.41,0,0-2.04.78.3,1.22Z"/><path class="cls-2" d="m885.3,268.57c1.34.52,2.97,2.39,2.58.2-.39-2.19-.41-1.34-2.67-1.17,0,0-1.25.45.09.97Z"/><path class="cls-2" d="m877,272.19c-.61,1.8,2.4,2.73,3.3,2.88.9.15.92-.7-1.17-2.58-2.09-1.88.39-2.17-1.18-2.21,0,0-.34.11-.95,1.91Z"/><path class="cls-2" d="m888.16,264.39c.34,1.01,3.93.48,2.02-.11-3.37-1.05-.37-2.04-2.38-2.22,0,0,.02,1.31.36,2.33Z"/><path class="cls-2" d="m888.81,267.89c.19.69,3.22,4.49,2.75,4.31-.47-.19-2.32-2.35-1.74-4.51,0,0-1.21-.49-1.01.2Z"/><path class="cls-2" d="m883.83,271.79c-3.9-2.86,1.02,3.74,5.24,4.33,4.23.59.52-1.47-1.99-1.09,0,0,.65-.38-3.26-3.24Z"/><path class="cls-2" d="m879.52,260.27c1.28,1.64,3.41,1.36,1.56-.64-1.86-2,.05-1.71-1.37-2.38,0,0-1.47,1.38-.19,3.02Z"/><path class="cls-2" d="m883.63,265.28c1.76-.23-1.16,1.73-2.41.84-1.25-.89-1.28-1.92-.7-1.62,0,0,1.35,1.01,3.11.78Z"/><path class="cls-2" d="m888.56,301.19c.32-.69.22.75-.3,1.04-.52.29-.8.11-.59-.05,0,0,.57-.31.9-.99Z"/><path class="cls-2" d="m871.8,256.59c-1.81.5,2.74,3.12,4.72,5.94,1.98,2.82-3.29-1.76-6.8-4.9-3.51-3.15-1.71-3.09,1.38-3.55,0,0,2.51,2.01.7,2.51Z"/><path class="cls-2" d="m862.17,260.16c2.48,3.39-4.84-1.25-7.76-7.42-2.92-6.17,6.49-2.84,4.91-1.23-1.58,1.61.37,5.26,2.85,8.65Z"/><path class="cls-2" d="m853.46,240.29c1.55-.23,7.62,2.99,3.28,2.31-4.34-.69-7.41-1.05-12.29-1.2-4.87-.15,8.07-4.17,6.23-2.57s1.24,1.69,2.78,1.47Z"/><path class="cls-2" d="m815.38,233.05c.67,3.93,8.38-.62,2.34-1.03-14.38-.99,2.96-5.19.66-5.54s-3.66,2.65-3,6.57Z"/><path class="cls-2" d="m828.1,237.26c-.36-5.85-5.03,5.96-.23,8.87,4.8,2.91,7.95,1.62,1.08-2.18,0,0-.49-.84-.85-6.69Z"/><path class="cls-2" d="m829.5,213.28c7.37,2.71,1.93,4.75-7.67-1.06-9.6-5.82-4.5-4.56,7.58-5.29,0,0-7.28,3.64.09,6.35Z"/><path class="cls-2" d="m808.98,217.29c4.78,6.44,1.23-5.21-2.56-4.72-5.19.67-7.88-8.67-4.38-5.17,0,0,2.16,3.45,6.93,9.89Z"/><path class="cls-2" d="m788.14,188.78c3.56,1.56,2.58,4.43-5.4.32-7.99-4.12-4.85-3.54,1.91-4.3,0,0-.06,2.42,3.49,3.98Z"/><path class="cls-2" d="m800.55,223.17c5.12,4.17-2.9-3.3-4.06-6.55-1.16-3.25.38-4.81-1.91-3-2.29,1.8.85,5.38,5.97,9.56Z"/><path class="cls-2" d="m785.69,213.31c.17-.05,2.18,7.56,5.42,9.03,4.43,2.01-3.12,4.99-4.84-5.24-.46-2.74-.64-3.78-.58-3.8Z"/><path class="cls-2" d="m778.72,205.36c-6.29-3.41-.15-3.75,1.53-1.56,1.68,2.19,9.38-.52,5.06,2.83-4.32,3.35-.31,2.13-6.59-1.27Z"/><path class="cls-2" d="m737.96,226.07c.99,2.59,4.41,3.22,9.99,2.01,5.58-1.21-2.34-1.49-4.68-2.99-2.34-1.49-1.99-4.61-7.08-2.21,0,0,.78.59,1.77,3.18Z"/><path class="cls-2" d="m702.25,225.83c4.12,3.29,12.75,3.03,8.38.74-4.37-2.29-3.55-3.45-4.81-1.11,0,0-7.7-2.91-3.58.38Z"/><path class="cls-2" d="m753.81,224.85c3.6,2.39-2.23-4.34-2.95-6.92-.72-2.58,3.24-3.88-1.52-2.61-4.75,1.28.87,7.14,4.47,9.53Z"/><path class="cls-2" d="m757.89,210.46c-1.3-.89-3.91-2.11,2.29-6.47,6.2-4.36-5.2-3.29-7.34-2.22-2.14,1.07,6.36,9.58,5.06,8.69Z"/><path class="cls-2" d="m735.65,213.2c.48,2.01-.23,8.81,3.34,3.52,2.39-3.55,5.18-3.76,5.18-4,0-.11-.68-.23-2.41-.76-5.25-1.58-4.68-2.99-6.8-2.77,0,0,.21,2,.69,4Z"/><path class="cls-2" d="m632.23,155.76c1.92.05,9.1,1.4,5.33-3.74-2.53-3.44-3.25-5.16-3.46-5.22-.1-.03-.39.64-1.33,2.29-2.83,5.01-3.94,4.04-4.31,6.3,0,0,1.84.32,3.77.37Z"/><path class="cls-2" d="m702.27,205.03c12.94,3.78,3.07,3,9.68,8.04,6.61,5.04,12.57.87,6.34-1.74-6.23-2.61-9.71,7.3-14.5-13.02,0,0-14.47,2.95-1.53,6.73Z"/><path class="cls-2" d="m889.75,300c-.11.28,1.19,1.06.51.87-.68-.19-1.97-1.48-.65-1.44,0,0,.26.29.14.57Z"/><path class="cls-2" d="m680.09,210.64c-8.56.71,1.7,3.92,8.46,3.16,6.77-.76,14.54-5.85-2.98-6.38,0,0,3.08,2.51-5.48,3.22Z"/><path class="cls-2" d="m655.7,204.15c-1,3.84-8.66,4.57-1.51,6.24,7.15,1.67,18.09-3.8,10.51-6.45-7.57-2.65-3.88-6.41-9.74-5.62,0,0,1.75,1.99.75,5.83Z"/><path class="cls-2" d="m627.11,207.57c8.05,1.7,11.26-.62,5.93-3.21-5.33-2.58-.76-5.35-4.79-5.95,0,0-9.19,7.46-1.14,9.16Z"/><path class="cls-2" d="m675.92,198.42c5.96-4.17,3.15.1,10.78.33,7.64.23-1.66-5.37-15.12-6.27,0,0-1.62,10.11,4.34,5.94Z"/><path class="cls-2" d="m653.88,164.36c-3.76,6.18,4.4,3.52,8.95,1.73,4.54-1.8,1.85-1.88.55-3.85-1.3-1.97-5.74-4.05-9.5,2.13Z"/><path class="cls-2" d="m606.67,181.3c-3.82,8.59,13.69,9.61,16.38,9.7,2.7.08-2.12-4.9-8.29-9.45-6.18-4.54,2.44-7.18-1.17-6.81,0,0-3.09-2.03-6.92,6.56Z"/><path class="cls-2" d="m616.8,169.75c1.76-.42,11.26-1.19,13.21,3.8,1.94,4.99,2.87,2.79,5.47-4.77,2.59-7.55,11.06,2.33,14.63-.5,3.56-2.83-16.76-5.43-25.98-3.24,0,0-9.07,5.13-7.32,4.71Z"/><path class="cls-2" d="m678.51,170.54c2.58-6.89-5.01,8.11-11.33,10.02-6.32,1.91,2.61,2.4,5.74,1.73,3.14-.68,11.17,3.96,13.37,2.47,2.2-1.48-7.68.02-9.52-3.13-1.84-3.15-3.02-3.74-6.39-3.33,0,0,5.54-.86,8.12-7.76Z"/><path class="cls-2" d="m510.48,136.25c-10.61,3.07,1.99,4.59,10.41,4.85,8.42.26,18.98-.55,12.08-5.29-6.9-4.74-1.07-12.55-13.82-8.34,0,0,1.96,5.72-8.66,8.79Z"/><path class="cls-2" d="m566.78,122.02c10.93-9.18-.39,14.66.21,19.83.6,5.17-5.51-.57-10.08-9.03-4.57-8.46-8.84.13-11.32-3.91-2.47-4.04-5.35-8.11,14.68.83,0,0-4.42,1.47,6.5-7.71Z"/><path class="cls-2" d="m262.44,104.22c-1.82,2.08-23.87-3.45-19.63.95,4.24,4.4,11.27,5.03,5.42,16.15-5.84,11.12-40.88,35.51-20.42,31.05,20.47-4.46,40.9-19.39,48.65-22.73,7.74-3.35,16.65-3.45,21.09-1.72,4.44,1.74,10.31-2.22-1.6-11.78-11.91-9.56-11.78-14.64-25.48-27.94-13.7-13.3-6.21,13.95-8.04,16.02Z"/><path class="cls-2" d="m395.2,143.56c11.64-.19-15.02-5.9-15.41-10.27-.39-4.37-13.39-10.21-11.09-1.43,2.3,8.78-13.62-1.51-23.03,10.18-9.41,11.69.91,3.84,16.76-2.75,15.85-6.59,3.54.11,3.38,6.09-.16,5.98,3.78,9.91,5.92,5.62,2.14-4.29,11.82-7.26,23.46-7.45Z"/><path class="cls-2" d="m416.5,107.94c-3.16.39-18.65,8.14-14.16,8.28,4.49.14,8.51,1.23,9.05,14.79.54,13.57,4.33,6.42,9.51-2.61,5.18-9.04,20.92-9.04,24.11-10.39,3.18-1.35,2.35-3.8-9.33-4.16-11.68-.36-3.95-3.51-6.55-7.46-2.59-3.95-3.95-3.51-7.96-5.08,0,0-1.51,6.24-4.67,6.63Z"/><path class="cls-2" d="m475.7,75.22c-8.2-3.16-8.73-5.29-3.88,5.24,4.85,10.53-1.8,6.2-11.96,7.37-10.16,1.18-.59,13.17,8.53,11.51,9.12-1.66,26.16,12.95,32.89,21.39,6.72,8.44,4.77-7.48.81-10.98-3.96-3.5-8.02-7.66-8.99-18.8-.97-11.13,4.79-9.2-3.76-14.35,0,0-5.43,1.77-13.64-1.39Z"/><path class="cls-2" d="m379.72,89.22s-9.33-1.88-11.4,1.78c-2.07,3.65,7.37,1.29,10.76,3.82,3.39,2.53.13,13.81,7.91,18.3,7.78,4.49-2.26-8.04-1.61-13.86.65-5.82,6.5,7.63,12.87,9.42,6.37,1.79,2.82-13.49.79-11.13-2.04,2.36-13.98-4.45-10.45-7.53,3.54-3.08-5.23-7.59-8.21-6.62-2.99.97-.65,5.82-.65,5.82Z"/><path class="cls-2" d="m898.33,286.87s3.24.82,1.91.06c-1.33-.77-.26-2.79-1.06-2.57-.79.22-.85,2.51-.85,2.51Z"/><path class="cls-2" d="m899.15,291.42c2.35.43,3.68,1.08,2.24.19-1.44-.89-.41-1.46-2.55-1.41,0,0-2.04.78.3,1.22Z"/><path class="cls-2" d="m900.41,289.02c1.59-.68.02-.73-1.9-.42,0,0,.31,1.1,1.9.42Z"/><path class="cls-2" d="m895.05,291.09s-.63-.89-1.77-.58l1.77.58Z"/><path class="cls-2" d="m897.37,287.97c1.59-.68.02-.73-1.9-.42,0,0,.31,1.1,1.9.42Z"/><path class="cls-2" d="m894.83,292.7c.43.74,3.52,3.01,2.08,2.12-1.44-.89-.6-2.92-1.94-3.33,0,0-.57.47-.14,1.21Z"/><path class="cls-2" d="m892.91,294.82c1.59-.68.02-.73-1.9-.42,0,0,.31,1.1,1.9.42Z"/><path class="cls-2" d="m885.18,308.05c.49-.21,0-.22-.58-.13,0,0,.09.34.58.13Z"/><path class="cls-2" d="m887.84,297.49s-.12-1.75-.92-1.95l.92,1.95Z"/><path class="cls-1" d="m339.19,80.12c.8-.14,1.51-.21,1.54,1,.03,1.11-.92,1.98-1.7,2.3-.13,2.87-.18,5-.03,5.32.52,1.12,13.94-1.67,18.17.9,4.23,2.57-3.85,7.39-14.21,7.91-2.52.13-6.26,0-7.71,5,2.51,1.36,2.51,2,1.6,3.47-.53.86-1.73.97-2.72.9l-.89,3.27c.89.3,1.52.81,1.25,1.79-.25.93-1.42,1.81-2.35,2.02-2.19,7.39-4.92,15.37-6.31,15.33-2.24-.07-7.69,1.78-7.08-.7.61-2.49,6.05-29.75,3.94-30.23-2.11-.49-8.73-.71-10.08.29-1.36,1-3.41,5.5-4.92,5.33-1.51-.18-2.34-.85-2.31-2.06.03-1.2,2.56-7.58,1.93-8.08-.62-.51-3.75-7.48-2.94-8.4.81-.92,2.73-1.24,3.44-.1l2.32,2.4c.98-2.95,1.36-3.14,2.37-2.91,1.15.27.73,5.16.73,7.12,1.33.2,9.93-.81,12.49-2.59,2.56-1.78,5.78-19.93,6.38-22.42.61-2.49,6.41-2.58,7.35-2.52.32.02.31,2.67.18,6.22,1.05.05,1.42.83,1.02,1.72-.25.55-.74.91-1.14,1.12l-.32,6.6Z"/><path class="cls-1" d="m552.98,146.42l.59-.62c1.09.64,1.05,1.88,1.85,1.12.23-.22.39-.47.07-1.23-.85-2-.33-3.31-.81-3.81-.04-.04-.63-1.84-.83-1.11-.19.73-.99.56-1.24-.07-.25-.63-.58,3.7-2.83,2.99,0,0-1-1.23-1.15-1.22,0,0,.02-.08,0-.59-.03-.55.63-.49.48-.93.14-.14-.09-.25.21-.52-.3-.66-.1-.83-.26-1.04-.73-1.01-1.24-.63-1.87-.17-.15.11-.46.87-.46.87-.12.9.35,1.31.16,1.52-.11.61-.91.84-.99,1.45-.01.1-.06.71-.08.82-.12.52.23,1.34.54,1.72l-.21.05c-.5.54-.89.75-.75,1.49,0,0-1.49,1.98-2.42,1.51-2.44-1.25-6.01-.78-3.54,2.97l.59.26c-.5.05-.98.73-.95,1.19.02.26.28.53.16.76-.04.08-.21-.24-.21-.15-.04,2.84,2.74-.86,2.9-1.19.09-.18.03-.81.1-.63.2.5,1.54,1.68,1.07,1.41-.17-.1-.46.15-.45.3.01.77.62.91.85,1.62.1.31-.15,1.14-.04,1.3.18.24.66.11.69.6l1.43.5c.13-.13.4-.16.43-.36l.52.86c.19.02.55,0,.58-.19.09-.67-.4-1.89-.9-2.35-.55-.51-.89-1.07-1.51-1.47l.11-.22c.58-.18,1.55-1.8,1.65-1.13.05.34-.15.88.13,1.04.54.31,1.54,1.24,1.49.37-.03-.48-.62-1.56-.2-1.4,1.35.53,2.4-.93,3.1.11.31.45.65.89,1.04,1.26l.05.24c.42.46,1.33.9,1.31,1.57-.01.41.14.85.37,1.18l.56.12-.05.47c.42.43,2.41.95,2.15.28-.59-1.5-4.87-6.63-3.51-6.05.9.38,1.46-.61,2.08.07.43.47,1.38,1.85.76,1.82l.34,1.41.35.14c.27-.31.66-.56.78-.96.46-1.54-.92-3.59-2.2-4.17l-1.2.11c.06-.13.1-.4-.01-.52l.11-.96c-.62-1.12-.64-.32-.82-1.74l-.11-.68Z"/><path class="cls-1" d="m641.65,173.43c.77,3.58,3.62,13.25,3.07,14.2-1.17-1.03-3.28-11.71-3.28-11.71-.96-.07-5.45,13.13-5.07,13.79.38.67,6.8-1.4,7.27-1.21.54.7.15.73-.38.96-.53.24-8.26,2.01-9.45,1.75-1.36.49,2.94,3.75,5.41,4.73,2.77,1.1,15.07-1.55,18.49-3.08,2.85-1.27,2.57-3.68,2.31-6.49-2.61.29-8.38,2.72-8.97,1.68-.47-.83,3.98-2.15,5.24-2.46,1.08-1.14-13.2-11.67-14.63-12.18Z"/><path class="cls-1" d="m208.24,170.38c5.51,14.67,23.64,53.83,21.89,58.28-5.62-3.55-21.26-47.48-21.26-47.48-4.13.41-15.04,59.81-13,62.38,2.04,2.57,28.09-10.84,30.2-10.37,2.75,2.57,1.1,2.98-1.02,4.37-2.13,1.39-33.91,14.52-39.15,14.26-5.49,3.08,14.84,13.84,25.95,16.23,12.48,2.69,63.21-17.45,76.83-26.42,11.34-7.47,8.67-17.53,5.82-29.28-10.94,3.12-34.01,17.62-37.17,13.63-2.54-3.2,15.63-12.02,20.79-14.27,3.89-5.61-63.45-40.2-69.88-41.33Z"/><path class="cls-1" d="m465.56,136.37c-4.72-3.67-8.58-17.1-9.02-22.53-.44-5.43.11-7.24.89-8.01.78-.77,5.35,7.85,11.15,11.88,3.13,2.17,5.45,5.14,6.99,7.73,1.43,2.41,4.62,2.62,6.31.41,2-2.62,4.1-5.36,4.94-5.43,1.55-.12,1.54,11.01-.84,12.31,4.26.1,5.75,4.19,5.62,4.37-1.39,1.98-7.06,3.17-8.88,4.87-1.82,1.7-5.25,2.99-9.52,2.23-4.27-.76-3.99-.58-4.38-.31s-5.72,4.05-8.89,2.43c-3.17-1.62-3.65-3.78-2.71-4.23.94-.45,9.36-4.92,8.33-5.73Z"/><path class="cls-1" d="m278.84,171.29s6.49,13.61,16.47,22.61c9.98,9,26.66,10.87,27.73,10.08s-14.56-31.28-11.21-35.05c3.35-3.78,16.74-3.32,17.35-3.29,1.05.06.98-.88.67-1.21-.29-.31-2.05-1.65-2.93-2.54s-5.75-4.99-11.08-4.68c-2.76.16-7.92-3.34-19.54-3.41-13.49-.08-17.98,5.46-22.4,6.73-4.42,1.27-19.84-1.49-22.5-1.03-2.66.46-3.91,11.29,3.05,14.31,6.96,3.02,14.95-2.11,16.62-2.62,1.67-.52,7.77.1,7.77.1Z"/><path class="cls-1" d="m578.21,144.41c.59,5.25,1.96,15.92,4.85,17.97,1.34-.84,3.75-.86,4.22.91,2.77,1.69-2.8.1-2.69,2.13,1.7,1.64,6.09,4.04,8.99,5.05.69.24.61,1.32-.11,1.45-4.05.75-12.17,2.47-16.1-3.07-1.86-2.37-4.4-2.46-6.34-.32-2.93.22-3.98-3.58-3.45-6.25,1.83-2.38,4.64.59,6.3-1.11-.31-1.58-4.38-8.03,3.08-17.12.42-.51,1.18-.32,1.25.35Z"/><path class="cls-1" d="m443.64,66.53s-6.11,3.96-12.22,6.91c-2.48,1.2-10.19,4.8-10.4,4.7-.11-.05-.45-5.89-.04-6.21,0,0,8.39-3.48,12.29-6.15.74-.51.26-2.95.98-3.56,3.1-2.63,5.11-4.11,5.86-2.95,1.46,2.26,3.52,7.27,3.52,7.27Z"/><path class="cls-1" d="m462.34,54.41s-2.94,17.97-15.04,25.67c-11.94,7.61-33.72,12.32-38.35,9.46-4.63-2.86-8.43-7.18-8.43-7.18l2.96-.52s.68,1.02,4.37.83c11.23-.57,37.18-12.53,54.49-28.27Z"/><path class="cls-1" d="m420.21,73.63v1.45s-11.05,5.36-11.72,5.8c-.67.44-1.88,1.17-2.09.91-.21-.27,13.82-8.16,13.82-8.16Z"/><path class="cls-1" d="m460.55,54.8l-1.62,1.69s-14.65,6.63-15.5,7.08c-.69-.62-.53-1.28-.53-1.28,0,0,16.06-7.62,17.66-7.49Z"/><path class="cls-1" d="m847.84,230.44c-.02-1.11-.19-2.31-.19-2.31l.31-.74c-.11-.09-.55.1-.81.2-.19.07-1.78.07-2.66.07,0-.03.01-.05.01-.05-.1-.44-.38-1.01-.55-.7-.12.21-.27.41-.32.7-.24-.07-.53-.19-.67-.23-.22-.05-.3.1-.99-.11-.7-.21-2.68-1.97-3.14-2.36-.47-.39-1.32-.25-1.91-.11-.08.02-.16.05-.22.1-.08-.06-.25-.17-.42-.15-.15.02-.4.19-.53.42-.14.25-.39,1.19-.42,1.3-.02.06-.38.8-.72,1.48-.72,0-1.3.01-1.62.02l.81-1.83s.41-.27.51-.9c.11-.63-.52-1.13-.59-1.24-.07-.12.26-.63-.07-1.14-.34-.51-1.48-2.38-1.91-2.36-.43.02-2.97-1.12-3.32-1.28-.35-.15-.98-.69-1.8-1.13-.81-.44-2.25.2-2.52.11-.26-.1-.47-.12-.67-.02-.19.1-.71-.3-.92.43-.2.73-.33,1.04-.45,1.13-.13.09-.25.18-.4.24-.15.06-.56.29-.56.29l-.95,2.14c-.08.18,0,.4.16.49l.69.35c-.4.93-.04,2.03.82,2.47.86.44,1.89.05,2.3-.87l4.32,2.21c-.41.93-.04,2.04.82,2.48.86.44,1.89.05,2.3-.88l.6.31c.17.09.38.01.46-.17l.09-.2c.35,0,.9,0,1.58-.01-.14.27-.24.47-.26.5-.07.13.12.04,0,.35-.12.31-.08.44-.08.44,0,0,.45-.53.56-.66.04-.06.22-.33.42-.63.11,0,.23,0,.35,0-.17.14-.37.34-.54.6-.18.3-.67,1.55-.71,1.61-.16.25-.2.39-.3.5-.19.2-.1.42.31.71.41.3.35-.12.35-.12,0,0,.04-.22.04-.47,0-.22.42-1.05.63-1.45.06.42.16.94.12,1.52-.03.44-.08.72-.08.72,0,0-.33.55.59.7.21.03.14-.81.11-1.02-.06-.33-.11-1.89.15-2.21.24-.29.78-.77,1.18-1.11h0s0,0,0,0c.2,0,.4,0,.61,0,.1.25.29.6.6.95.98,1.1,3.15,1.48,3.15,1.48,0,0-1.17,2.25-1.48,2.65-.3.39-.55.59-.73.9-.17.32.35.75.46.79.25.09.29-.64.44-.81.08-.09.68-.83,1.32-1.55-.11.41-.34,1.26-.45,1.54-.09.21-.3.65-.31.72-.05.34-.13.39.14.54.18.11.43.18.54.06.1-.12-.11-.28.06-.78.3-.86,1.06-2.73,1.3-3.34.08-.06.15-.1.21-.12.45-.15.76-.52,1.01-.83.04.22.08.37.11.39.16.08.52.21.61-.08.08-.25.04-.57-.03-.89.64-.3,1.66-.6,1.66-.6,0,0,.18.36.21,1.07.02.41,1.31.51,1.29-.2Zm-12.06-2.49c-.16,0-.32,0-.47,0,.13-.21.23-.37.26-.41.08-.12.2-.53.21-.71,0-.06.05-.14.12-.25,0,.41.11.94-.01,1.17-.03.05-.06.12-.11.2Z"/><path class="cls-1" d="m725.63,200.94c-.72-.25-1.52-.14-1.82.19-.14.15-1.45,1.64-1.54,2.67-.13,1.49.81,4.37,1.77,4.83s.42.8.89,2.13c.47,1.32,1.18,1.65.8,2.23s-2.03,2.24-2.59,2.99c-.23.31.07,1.46.57,1.85.79.64.61-.85.55-1.25s1.95-2,2.16-2.25c.48-.63.33,2.31.26,2.69-.11.58-.37,1.28.43,1.08.34-.08,1.39.51,1.53-.07.13-.51-1-.83-.7-.89.04,0,.07-.05.07-.1-.08-1.09-.2-1.89.02-2.34.22-.46.51-.94.49-1.39s-.15-1.45-.35-1.94c0,0,.17-.9.22-1.78.07-1.16.18-2.3.21-3.06.02-.52,0-2.02.41-2.44.41-.42,1.75-.71,1.98-1.41.23-.7-.17-2.88-.85-2.61-.68.28-1.96.48-2.06,1.56-.05.52-2.46-.73-2.46-.73Z"/><path class="cls-1" d="m514.12,97.37c2.86-.4,11.84-5.32,16.49-1.24,4.65,4.08,2.43,6.83,1.48,8.16-.5-2.02-1.64-3.83-3.67-3.67-3.03.24-5.15,3.61-3.13,6.31,2.28,3.04,7.53,3.43,10.15,3.43.34,0,.54.44.3.7-.85.95-1.61,3.05-.3,7.69,2.32,8.24-20.6-7.55-27.1-17.34-1.08-1.63.01-4,1.87-3.87,1.24.09,2.54.02,3.91-.17Z"/><path class="cls-1" d="m587.48,142l-1.03.81c-.11.08-.13.25-.04.36l1.23,1.61c.08.11.52.13.62.02l1.11-.8c.96.84,2.12,1.68,3.37,2.44,4.91,3,20.26,10.79,20.26,10.79,3.62,1.76,7.37,1.24,8.38-1.17,1.01-2.4-1.11-5.77-4.73-7.53l-4.98-2.05.12-2.56c.07-.55-.21-1.09-.7-1.29l-6.5-2.39c-.48-.2-1.04-.02-1.33.45l-1.12,1.87-7.77-3.2c-1.03-.5-2.04-.87-2.97-1.09l-.09-2.18c0-.17-.11-.3-.26-.34l-1.47-.41c-.19-.05-.38.07-.42.28l-.46,2.41c-.95.12-1.64.52-1.94,1.23-.32.77-.02,1.73.71,2.74Z"/><path class="cls-1" d="m212.89,283.1c-22.87-1.71-38.89-26.35-38.89-26.35,0,0-24.93,19.68-37.57,22.63-25.36,5.93-38.83,8.05-80.03,4.62,0,0,24.22,11.47,41.72,13.72,17.24,2.21,35.88,3.48,45.37,4.22,37.08,2.9,79.78-5.78,108.33-25.44-12.81,3.45-25.58,7.59-38.93,6.59Z"/><path class="cls-1" d="m323.46,292.01c-20.27-13.32-19.94-36.26-1.99-31.38-6.09-12.97-19.83-11.06-30.63-6.09-8.23,3.78-33.3,28-57.13,37.97-20.68,8.66-60.33,20.11-99.41,13.5,17.74,11.04,58.09,9.47,81.22,5.32,29.97-5.37,42.44-11.65,69.61-27.2,4.59,7.07,10.49,13.16,17.55,17.26,26.29,15.29,73.89,8.45,90.3-19.22-6.78,5.52-16.54,8.86-24.67,11.5-12.75,4.14-32.74,6.29-44.85-1.67Z"/><path class="cls-1" d="m428.32,243.46c-5.02,8.88-10.27,17.6-16.04,25.94-12.45,17.97-26.5,34.14-46.85,41.2-21.15,7.35-42.36,5.78-62.04-5.16,0,0,25.62,20.57,56.23,26.68,26.27,5.24,55.37.99,80.35-8.53,24.97-9.51,43.69-26.33,63.19-45.46-5.53.26-10.6-1.02-15.95-2.31-21.47-5.18-39.4-14.53-58.89-32.37Z"/><path class="cls-1" d="m456.36,321.88c-41.41,21.75-78.26,21.33-105,14.74-27.63-6.81-49.15-24.24-68.78-45.95-5.9,5.56-28.06,17.8-46.38,22.45-14.84,3.77-27.24,9.89-58.29,8.07-23.2-1.36-40.8-8.03-60.48-16.96,11.71,13.6,32.22,29.67,65.35,32.7,37.53,3.44,63.86-1.57,88.94-7.09,41.12,36.96,109.02,39.26,135.19,39.73,20.78.38,37.29-.17,59.38-8.2,20-7.28,45.14-24.74,59.8-41.24,50.55,41.38,104.38,5.41,104.38,5.41,0,0-61.8,10.2-92.43-58.78-26.22,9.49-62.91,45.26-81.67,55.12Z"/><path class="cls-1" d="m791.59,290.88c-10.13-.43-35.18-1.75-45.32-1.35-33.39,1.4-60.69,8.45-86.8,22.17v.12c-19.36,9.62-76.99,18.77-115.62-47.38,23.3-15.3,23.26-21.11,48.27-24.49-2.07,24.77,14.78,32.47,23.87,35.37,13.86,4.48,33.29-3.04,42.12-3.76,28.73-4.39,53.04,2.08,60.27,2.9,30.61,3.58,50.21,8.95,73.21,16.41Z"/><path class="cls-1" d="m943.6,342.61c-1.77-.26-52.13-5.74-83.27-8.22-18.97-1.52-36.68,1.48-63.62,3.12-28.51,1.74-58.14,7.93-84.48,20.43-17,8.05-31.81,17.33-50.24,27.2v-.04c-19.49,8.1-29.48,10.56-41.37,13.29-68.74,15.93-127.82,1.98-169.13-3.4,55.22,3.23,107.82-3.33,136.02-10.79,26.95-7.12,47.62-16.51,73.34-32.85v-.29c16.04-10.03,31.27-20.1,60.1-31.17,47.77-18.35,83.77-15.41,160.85,4.18,20.51,5.21,41.26,13.75,61.83,18.55Z"/><path class="cls-1" d="m814.93,304.68c-.27.01-59.18-9.48-109.47,12.1-18.1,7.77-28.56,12.66-45,23.61v.25c-28.28,20.73-63.46,33.66-98.49,42.04-18.92,4.54-46.16,7.59-65.5,7.77-26,.28-87.48-2.29-125-16.72,42.69,5.29,73.3,1.03,94.47-6.15,20.75-7.04,53.88-30.6,60.66-40.72,6.77,8.88,41.75,29.39,91.5,11.44,14.19-5.13,28.16-12.11,41.63-19.2v-.21c25.62-13.37,33.44-14.22,43.54-16.92,21.9-5.85,73.48-12.99,111.66,2.7Z"/><path class="cls-1" d="m268.62,341.47c-13.92,3.71-25.08,4.04-42.72,5.81-22.13,2.22-46.65-1.58-66.81-10.13,0,0,33.1,39.89,103.18,48.24,28.34,3.38,65.33,4.11,84.83-15.02-34.95-3.75-62.31-14.7-78.48-28.9Z"/></svg>