<?xml version="1.0" encoding="UTF-8"?><svg id="Layer_1" xmlns="http://www.w3.org/2000/svg" viewBox="0 0 600 140"><defs><style>.cls-1{fill:#4c6682;stroke-width:0px;}</style></defs><path class="cls-1" d="m41.89,48.1c4.85,0,16.82,1.02,21.66,1.4-10.89-3.74-20.18-6.48-34.76-8.6-3.45-.5-14.97-3.81-28.79-2.36v17.97c12.72-5.66,25.89-8.39,41.89-8.41Z"/><path class="cls-1" d="m86.57,35.88c-10.91-1.16-18.18-12.42-18.18-12.42,0,0-12.24,8.33-18.34,9.43-12.23,2.2-27.28,1.65-45.15,2.12,0,0,19.39,2.02,27.28,4.01,8.06,2.03,16.36,3.55,20.88,4.05,17.69,1.94,36.12-2.02,52.24-9.44-6.19,1.31-12.37,2.93-18.73,2.25Z"/><path class="cls-1" d="m139.33,41.79c-9.48-6.29-8.95-16.5-.44-14.01-2.7-5.89-9.31-5.28-14.55-3.25-4,1.54-16.71,11.38-28.27,15.4-10.03,3.49-29.55,7.21-43.68,4.65,11.95,2.11,20.41,3.85,30.55,3.46,14.54-.56,24.93-3.97,38.18-10.43,2.08,3.23,4.81,6.05,8.12,8,12.33,7.27,34.21,4.73,42.52-7.31-3.34,2.34-7.06,3.98-10.99,5.02-6.17,1.62-15.77,2.23-21.43-1.53Z"/><path class="cls-1" d="m190.29,22c-2.55,3.87-5.2,7.66-8.1,11.28-6.25,7.79-13.24,14.75-23.09,17.54-10.24,2.9-20.36,1.83-29.6-3.38,0,0,11.92,9.62,26.47,12.87,12.48,2.79,26.48,1.41,38.59-2.39,12.1-3.8,21.33-10.97,30.97-19.15-2.65.02-5.06-.64-7.59-1.31-10.19-2.68-18.61-7.16-27.65-15.45Z"/><path class="cls-1" d="m202.44,57.43c-20.16,8.96-37.79,8.13-50.48,4.73-13.11-3.52-23.12-11.66-32.16-21.68-2.91,2.37-11.32,6.31-26.48,9.41-7.15,1.46-19.39.53-26.65-.03,0,0,31.73,7,39.42,9.66,13.09,4.53,59.4,17.62,71.91,18.29,9.94.53,17.85.58,28.54-2.61,9.69-2.89,22-10.23,29.28-17.33,23.52,19.32,49.85,4.24,49.85,4.24,0,0-29.73,3.46-43.27-27.81-12.7,3.77-30.83,19.06-39.97,23.13Z"/><path class="cls-1" d="m363.54,49.49c-4.84-.36-16.8-1.4-21.66-1.39-15.99.02-29.17,2.76-41.88,8.41-9.43,3.94-37.16,7.01-54.55-23.15,11.39-6.4,11.46-9,23.5-10.08-1.4,11.01,6.52,14.74,10.84,16.2,6.57,2.24,15.99-.76,20.22-.94,13.82-1.46,25.34,1.86,28.79,2.34,14.58,2.13,23.86,4.87,34.75,8.6Z"/><path class="cls-1" d="m374.48,55.04c-.12,0-32.53-3-52.58,4.47-8.74,3.26-13.86,5.25-21.9,9.83-13.87,8.76-30.92,13.89-47.83,17.03-9.12,1.68-22.2,2.57-31.46,2.31-12.45-.35-41.83-2.55-59.55-9.66,20.36,3.1,35.06,1.77,45.31-1.08,10.06-2.77,26.27-12.68,29.69-17.06,3.09,4.08,19.49,13.8,43.6,6.68,6.88-2.03,13.66-4.89,20.24-7.8,12.47-5.5,16.23-5.84,21.1-6.87,10.58-2.22,34.25-2.57,53.38,2.15Z"/><path class="cls-1" d="m65.24,70.36c12.91-.26,25.33.45,38.19,1.63,17.54,1.6,52.04,6.11,52.9,6.26-9.78-2.48-19.57-6.66-29.29-9.34-36.56-10.09-69.89-17.14-97.78-7.73-13.89,4.68-21.42,8.77-29.26,12.96v15.08c8.98-4.06,16.22-7.94,24.48-11.23,12.82-5.11,27.09-7.34,40.76-7.62Z"/><path class="cls-1" d="m8.19,88.27s21.95-8.72,53.59.46c28.3,8.21,40.89,10.38,61.94,11.47,22.25,1.15,62.87-11.71,62.79-11.78-1.03-.2-59.91-10.48-70.76-11.69-74.79-8.34-94.43,6.04-107.55,11.53Z"/><path class="cls-1" d="m220.54,96.28c-4.3-.65-17.64-2.83-29.88-6.38-18.25,5.45-56.8,22.31-77.58,25.47,0,0,45.9,5.04,63.02,3.3,17.58-1.79,37.96-3.66,54.73-8.89,16.66-5.2,22.69-7.04,39.57-11.84-13.65,1.58-30.45,1.3-49.85-1.65Z"/><path class="cls-1" d="m456.26,78.23c-1.87-.28-35.57-4.66-52.84-6.24-12.85-1.18-25.28-1.89-38.19-1.63-13.66.28-27.94,2.51-40.77,7.61-8.25,3.29-15.5,7.18-24.47,11.24-9.47,3.26-14.29,4.18-20.01,5.19-33.16,5.9-61.2-1.35-80.88-4.47,26.38,2.39,51.64.4,65.25-2.43,13.02-2.71,23.05-6.52,35.64-13.35,7.82-4.2,15.36-8.29,29.25-12.97,27.88-9.4,61.21-2.36,97.79,7.73,9.69,2.69,19.46,6.85,29.22,9.33Z"/><path class="cls-1" d="m397.15,100.36c-.17,0-.33,0-.5-.02-7.13-.52-14.18-1.51-21.31-2.17-14.1-1.32-27.14-1.02-41.01,2.12-11.97,2.71-19.53,7.08-34.32,11.18-29.17,9.09-71.53,4.14-82.08,3.9,5.9-1.09,25.82-6.75,31.56-8.43,17.38-5.08,33.21-9.8,50.51-14.51,6.92-1.87,18.17-4.14,24.73-4.53,14.51-.81,18.42.05,33.1,3.43,12.68,2.9,27.47,6.12,39.31,9.02Z"/><path class="cls-1" d="m75.34,98.17c7.12.66,14.18,1.65,21.31,2.18.17,0,.33,0,.5.01-11.84-2.89-26.63-6.11-39.32-9.02-14.69-3.37-18.58-4.24-33.1-3.42-6.55.37-17.81,2.65-24.73,4.51v19.04c14.8-4.12,22.35-8.48,34.32-11.19,13.88-3.14,26.92-3.42,41.02-2.12Z"/><path class="cls-1" d="m74.49,55.04c-19.13-4.71-42.8-4.37-53.37-2.15-4.89,1.03-8.64,1.37-21.12,6.87v9.6c8.05-4.59,13.17-6.58,21.91-9.84,20.05-7.48,52.45-4.48,52.58-4.48Z"/><path class="cls-1" d="m111.25,103.83c-15.23-.1-30.28-2.06-45.45-3.07-19.28-1.3-37.82,4.53-54.32,9.66,0,0,22.84-3.04,48.21,2.7,13.09,2.96,25.62,4.38,39.02,2.36,13-1.96,42.71-10.58,54.81-15.66-15.56,3.42-34.07,4.07-42.27,4.02Z"/><path class="cls-1" d="m386.57,35.88c-10.91-1.16-18.18-12.42-18.18-12.42,0,0-12.24,8.33-18.34,9.43-12.23,2.2-27.28,1.65-45.15,2.12,0,0,19.39,2.02,27.28,4.01,8.06,2.03,16.36,3.55,20.88,4.05,17.69,1.94,36.12-2.02,52.24-9.44-6.19,1.31-12.37,2.93-18.73,2.25Z"/><path class="cls-1" d="m439.33,41.79c-9.48-6.29-8.95-16.5-.44-14.01-2.7-5.89-9.31-5.28-14.55-3.25-4,1.54-16.71,11.38-28.27,15.4-10.03,3.49-29.55,7.21-43.68,4.65,11.95,2.11,20.41,3.85,30.55,3.46,14.54-.56,24.93-3.97,38.18-10.43,2.08,3.23,4.81,6.05,8.12,8,12.33,7.27,34.21,4.73,42.52-7.31-3.34,2.34-7.06,3.98-10.99,5.02-6.17,1.62-15.77,2.23-21.43-1.53Z"/><path class="cls-1" d="m490.29,22c-2.55,3.87-5.2,7.66-8.1,11.28-6.25,7.79-13.24,14.75-23.09,17.54-10.24,2.9-20.36,1.83-29.6-3.38,0,0,11.92,9.62,26.47,12.87,12.48,2.79,26.48,1.41,38.59-2.39,12.1-3.8,21.33-10.97,30.97-19.15-2.65.02-5.06-.64-7.59-1.31-10.19-2.68-18.61-7.16-27.65-15.45Z"/><path class="cls-1" d="m502.44,57.43c-20.16,8.96-37.79,8.13-50.48,4.73-13.11-3.52-23.12-11.66-32.16-21.68-2.91,2.37-11.32,6.31-26.48,9.41-7.15,1.46-19.39.53-26.65-.03,0,0,31.73,7,39.42,9.66,13.09,4.53,59.4,17.62,71.91,18.29,9.94.53,17.85.58,28.54-2.61,9.69-2.89,22-10.23,29.28-17.33,23.52,19.32,49.85,4.24,49.85,4.24,0,0-29.73,3.46-43.27-27.81-12.7,3.77-30.83,19.06-39.97,23.13Z"/><path class="cls-1" d="m568.94,23.3c-12.03,1.06-12.1,3.67-23.5,10.06,17.4,30.16,45.13,27.1,54.55,23.15v-17.97c-4.23.18-13.65,3.17-20.22.94-4.31-1.46-12.23-5.18-10.83-16.19Z"/><path class="cls-1" d="m536.17,60.88c-3.41,4.39-19.64,14.3-29.68,17.08-10.25,2.83-24.96,4.18-45.31,1.07,17.72,7.1,47.09,9.31,59.55,9.65,9.25.25,22.33-.62,31.46-2.31,16.9-3.13,33.95-8.27,47.82-17.02v-9.6c-6.56,2.92-13.35,5.77-20.24,7.81-24.09,7.13-40.49-2.61-43.59-6.69Z"/><path class="cls-1" d="m308.19,88.27s21.95-8.72,53.59.46c28.3,8.21,40.89,10.38,61.94,11.47,22.25,1.15,62.87-11.71,62.79-11.78-1.03-.2-59.91-10.48-70.76-11.69-74.79-8.34-94.43,6.04-107.55,11.53Z"/><path class="cls-1" d="m520.54,96.28c-4.3-.65-17.64-2.83-29.88-6.38-18.25,5.45-56.8,22.31-77.58,25.47,0,0,45.9,5.04,63.02,3.3,17.58-1.79,37.96-3.66,54.73-8.89,16.66-5.2,22.69-7.04,39.57-11.84-13.65,1.58-30.45,1.3-49.85-1.65Z"/><path class="cls-1" d="m564.37,87.48c-13.62,2.83-38.88,4.83-65.25,2.43,19.68,3.11,47.72,10.37,80.88,4.48,5.73-1.02,10.54-1.94,20-5.19v-15.07c-12.58,6.83-22.62,10.65-35.63,13.35Z"/><path class="cls-1" d="m549.49,106.95c-5.73,1.68-25.65,7.33-31.55,8.41,10.54.24,52.91,5.18,82.07-3.9v-19.04c-17.3,4.71-33.13,9.44-50.51,14.53Z"/><path class="cls-1" d="m411.25,103.83c-15.23-.1-30.28-2.06-45.45-3.07-19.28-1.3-37.82,4.53-54.32,9.66,0,0,22.84-3.04,48.21,2.7,13.09,2.96,25.62,4.38,39.02,2.36,13-1.96,42.71-10.58,54.81-15.66-15.56,3.42-34.07,4.07-42.27,4.02Z"/></svg>