<?xml version="1.0" encoding="UTF-8"?><svg id="Layer_1" xmlns="http://www.w3.org/2000/svg" viewBox="0 0 1000 498"><defs><style>.cls-1,.cls-2{fill:#faf9f7;stroke-width:0px;}.cls-2{fill-rule:evenodd;}</style></defs><path class="cls-2" d="m911.21,317.81c-.03,1.16.84.69,1.05-1.39.21-2.08.18-.99-1.3-.7,0,0,.28.94.25,2.09Z"/><path class="cls-2" d="m915.53,315.03c-1.05-1.02-1.32-2.52-2.24-2.38-.93.14,3.29,3.41,2.24,2.38Z"/><path class="cls-2" d="m915.32,311.22c-.42-1.67,1.12-1.78.21-1.98,0,0,.21,3.64-.21,1.98Z"/><path class="cls-2" d="m919.62,311.35c2.16-.43.55-3.45.05-1.82-.5,1.64-2.21,2.25-.05,1.82Z"/><path class="cls-2" d="m918.93,308.19c1.54-.28.63-.48-1.05-.86,0,0-.49,1.14,1.05.86Z"/><path class="cls-2" d="m906.09,317.25c-.74-.02.26,1.44.26,1.44,0,0,2.1-1.21,1.22-1.24,0,0-.73-.18-1.47-.2Z"/><path class="cls-2" d="m909.25,315.08c-1.74-1.17,1.11-2.67.51-2.69,0,0,1.23,3.86-.51,2.69Z"/><path class="cls-2" d="m910.86,310.36c-1.37.12,4.14,1.4,3.4,1.38s-.71-1.14-.99-1.78c0,0-1.04.29-2.41.4Z"/><path class="cls-2" d="m923.91,307.15c1.02.03-3.53-1.39-3.53-1.39,0,0,2.51,1.36,3.53,1.39Z"/><path class="cls-2" d="m912.35,301.32s-.12-1.83-.96-2.04l.96,2.04Z"/><path class="cls-2" d="m914.75,306.87s-.62-2.39-1.64-2.24l1.64,2.24Z"/><path class="cls-2" d="m921.76,304.89s-.65-.93-1.85-.6l1.85.6Z"/><path class="cls-2" d="m917.09,305.2c3.19,1.19,1.04-.7.59-3.09-.45-2.39-1.2.33-3.43,1.36,0,0-.35.54,2.84,1.73Z"/><path class="cls-2" d="m919.67,300.63c.44,2.57-.56,1.99,1.64,2.24,2.2.25,1.93-2.32.57-2.18-1.36.14-1.18-.22-3.35-1.75,0,0,.7-.89,1.14,1.68Z"/><path class="cls-2" d="m913.38,295.2c1.19-.6.61-.74,1.79-.96,1.18-.22.97-1.36-1.51-.55,0,0-1.46,2.1-.27,1.51Z"/><path class="cls-2" d="m916.36,297.94c1.66-.71.02-.76-1.98-.44,0,0,.32,1.15,1.98.44Z"/><path class="cls-2" d="m920.55,299.33c-1.06-.03-1.73-1.32-.4-2.66,1.33-1.35.14-.88-1.74-.68,0,0,3.2,3.38,2.14,3.35Z"/><path class="cls-2" d="m903.51,326.26c-.29,0-.47-.36-.11-.73.36-.37.04-.24-.48-.19,0,0,.87.93.59.92Z"/><path class="cls-2" d="m914.51,292.46c-1.16-.67-.8-.91.64-1.88,1.43-.97-2.48.56-4.61,1.37,0,0,5.13,1.17,3.98.5Z"/><path class="cls-2" d="m913.92,301.53c-.46-.39.02-.76,2.61-.93,2.59-.17-3-1.86-3.84-1.38-.83.48,1.69,2.7,1.23,2.31Z"/><path class="cls-2" d="m908.68,295.56c.45.77,3.67,3.14,2.17,2.21-1.5-.93-.62-3.05-2.02-3.47,0,0-.6.49-.15,1.26Z"/><path class="cls-2" d="m913.57,296.72c-1.74-.81-.1-.51.96-.85,1.07-.35-1.61-1.31-3.25-1.36,0,0,4.03,3.03,2.29,2.22Z"/><path class="cls-2" d="m903.74,328.62c-.46-.21-.03-.13.25-.23.28-.09-.43-.35-.86-.36,0,0,1.07.8.61.59Z"/><path class="cls-2" d="m908.34,290.62s3.38.86,1.99.06c-1.39-.8-.28-2.91-1.1-2.69-.83.23-.89,2.63-.89,2.63Z"/><path class="cls-2" d="m904.49,321.36s.85-.53.42-.4c-.43.12-.58-.54-.71-.32-.13.22.29.73.29.73Z"/><path class="cls-2" d="m904.74,293.42c2.45.45,3.84,1.13,2.34.2-1.5-.93-.43-1.53-2.66-1.47,0,0-2.13.82.32,1.27Z"/><path class="cls-2" d="m902.27,289.18c1.39.55,3.1,2.49,2.69.21-.41-2.29-.43-1.4-2.78-1.22,0,0-1.3.47.09,1.01Z"/><path class="cls-2" d="m893.6,292.95c-.64,1.88,2.51,2.86,3.44,3.01.93.15.96-.73-1.22-2.69-2.18-1.96.41-2.26-1.23-2.31,0,0-.35.12-.99,1.99Z"/><path class="cls-2" d="m905.26,284.81c.36,1.06,4.1.51,2.11-.11-3.52-1.09-.39-2.13-2.49-2.31,0,0,.02,1.37.38,2.43Z"/><path class="cls-2" d="m905.94,288.46c.2.72,3.37,4.69,2.87,4.5-.49-.19-2.43-2.46-1.81-4.7,0,0-1.26-.52-1.06.21Z"/><path class="cls-2" d="m900.74,292.53c-4.08-2.99,1.06,3.91,5.47,4.52,4.41.61.54-1.53-2.07-1.14,0,0,.67-.4-3.4-3.38Z"/><path class="cls-2" d="m896.23,280.5c1.34,1.71,3.56,1.42,1.62-.67-1.94-2.09.05-1.79-1.43-2.49,0,0-1.53,1.44-.19,3.15Z"/><path class="cls-2" d="m900.53,285.73c1.83-.24-1.21,1.81-2.52.88-1.3-.93-1.33-2.01-.73-1.69,0,0,1.41,1.06,3.25.81Z"/><path class="cls-2" d="m905.68,323.23c.34-.72.22.78-.32,1.08-.54.3-.84.11-.62-.05,0,0,.6-.32.94-1.04Z"/><path class="cls-2" d="m888.18,276.66c-1.89.52,2.86,3.26,4.93,6.21,2.07,2.95-3.43-1.83-7.1-5.12-3.66-3.28-1.79-3.23,1.44-3.7,0,0,2.62,2.1.73,2.62Z"/><path class="cls-2" d="m878.13,280.39c2.59,3.54-5.06-1.31-8.1-7.74-3.05-6.44,6.78-2.96,5.12-1.29-1.65,1.68.39,5.49,2.98,9.03Z"/><path class="cls-2" d="m869.03,259.64c1.61-.24,7.96,3.13,3.42,2.41-4.54-.72-7.74-1.1-12.83-1.26-5.09-.16,8.42-4.36,6.5-2.68-1.92,1.67,1.29,1.77,2.91,1.53Z"/><path class="cls-2" d="m829.27,252.08c.7,4.1,8.75-.64,2.44-1.08-15.01-1.04,3.09-5.42.69-5.79s-3.82,2.77-3.13,6.86Z"/><path class="cls-2" d="m842.55,256.48c-.37-6.11-5.26,6.22-.24,9.26,5.01,3.04,8.3,1.7,1.13-2.27,0,0-.51-.88-.89-6.99Z"/><path class="cls-2" d="m844.01,231.44c7.7,2.83,2.01,4.96-8.01-1.11-10.02-6.07-4.7-4.76,7.92-5.52,0,0-7.6,3.8.09,6.63Z"/><path class="cls-2" d="m822.59,235.63c4.99,6.72,1.28-5.44-2.67-4.92-5.41.7-8.23-9.05-4.57-5.4,0,0,2.25,3.61,7.24,10.33Z"/><path class="cls-2" d="m800.83,205.87c3.71,1.63,2.69,4.63-5.64.33-8.34-4.3-5.07-3.69,2-4.49,0,0-.07,2.52,3.65,4.15Z"/><path class="cls-2" d="m813.79,241.77c5.34,4.36-3.03-3.45-4.24-6.84-1.21-3.39.39-5.02-2-3.14-2.39,1.88.89,5.62,6.23,9.98Z"/><path class="cls-2" d="m798.28,231.47c.18-.05,2.28,7.9,5.66,9.43,4.62,2.1-3.26,5.21-5.05-5.47-.48-2.86-.67-3.95-.61-3.96Z"/><path class="cls-2" d="m790.99,223.17c-6.57-3.56-.16-3.92,1.6-1.63,1.76,2.29,9.79-.54,5.28,2.96-4.51,3.5-.32,2.23-6.88-1.33Z"/><path class="cls-2" d="m748.44,244.8c1.03,2.71,4.6,3.36,10.43,2.1,5.83-1.26-2.44-1.56-4.89-3.12-2.44-1.56-2.08-4.82-7.39-2.31,0,0,.81.62,1.84,3.32Z"/><path class="cls-2" d="m711.16,244.55c4.31,3.43,13.31,3.17,8.75.77-4.56-2.39-3.71-3.6-5.02-1.16,0,0-8.04-3.04-3.74.39Z"/><path class="cls-2" d="m764.99,243.52c3.76,2.49-2.32-4.53-3.08-7.22-.76-2.7,3.38-4.06-1.58-2.72-4.96,1.33.91,7.45,4.67,9.94Z"/><path class="cls-2" d="m769.26,228.5c-1.36-.93-4.08-2.2,2.39-6.76,6.47-4.55-5.43-3.43-7.67-2.31-2.24,1.12,6.64,10.01,5.28,9.07Z"/><path class="cls-2" d="m746.03,231.36c.5,2.09-.24,9.2,3.49,3.67,2.5-3.7,5.4-3.93,5.41-4.17,0-.12-.7-.24-2.51-.79-5.48-1.65-4.89-3.12-7.1-2.89,0,0,.22,2.09.72,4.18Z"/><path class="cls-2" d="m638.05,171.39c2.01.05,9.5,1.46,5.56-3.9-2.64-3.59-3.39-5.38-3.61-5.45-.11-.03-.41.66-1.38,2.39-2.96,5.23-4.11,4.22-4.5,6.58,0,0,1.93.33,3.93.38Z"/><path class="cls-2" d="m711.19,222.83c13.51,3.95,3.2,3.13,10.11,8.39,6.9,5.26,13.12.91,6.62-1.82-6.5-2.72-10.14,7.62-15.13-13.6,0,0-15.1,3.07-1.59,7.02Z"/><path class="cls-2" d="m906.92,321.98c-.12.29,1.24,1.11.53.91-.71-.2-2.05-1.55-.68-1.5,0,0,.27.3.15.6Z"/><path class="cls-2" d="m688.03,228.69c-8.94.74,1.77,4.1,8.83,3.3,7.06-.79,15.18-6.1-3.11-6.66,0,0,3.22,2.62-5.72,3.36Z"/><path class="cls-2" d="m662.56,221.91c-1.04,4.01-9.05,4.78-1.58,6.52,7.47,1.74,18.88-3.97,10.98-6.74-7.91-2.77-4.05-6.69-10.17-5.87,0,0,1.82,2.08.78,6.09Z"/><path class="cls-2" d="m632.71,225.49c8.4,1.77,11.75-.65,6.19-3.35-5.56-2.7-.79-5.58-5-6.22,0,0-9.6,7.79-1.19,9.56Z"/><path class="cls-2" d="m683.67,215.93c6.22-4.36,3.28.1,11.26.34,7.98.24-1.73-5.61-15.79-6.55,0,0-1.69,10.56,4.53,6.2Z"/><path class="cls-2" d="m660.66,180.37c-3.93,6.45,4.6,3.68,9.34,1.8,4.74-1.88,1.93-1.96.58-4.02-1.35-2.06-5.99-4.22-9.92,2.22Z"/><path class="cls-2" d="m611.37,198.06c-3.99,8.97,14.29,10.04,17.1,10.12s-2.21-5.12-8.66-9.86c-6.45-4.74,2.55-7.5-1.22-7.11,0,0-3.23-2.12-7.22,6.85Z"/><path class="cls-2" d="m621.95,186c1.83-.44,11.76-1.24,13.79,3.96,2.03,5.21,3,2.91,5.71-4.98,2.71-7.88,11.55,2.43,15.27-.52,3.72-2.95-17.5-5.67-27.13-3.38,0,0-9.47,5.35-7.64,4.92Z"/><path class="cls-2" d="m686.37,186.82c2.7-7.2-5.23,8.47-11.83,10.46-6.6,1.99,2.72,2.51,6,1.8,3.28-.71,11.67,4.13,13.96,2.58,2.3-1.55-8.02.02-9.93-3.27-1.92-3.29-3.15-3.9-6.67-3.47,0,0,5.79-.9,8.48-8.1Z"/><path class="cls-2" d="m510.94,151.02c-11.08,3.21,2.07,4.79,10.86,5.06,8.79.27,19.81-.58,12.61-5.52-7.2-4.95-1.12-13.11-14.43-8.71,0,0,2.04,5.97-9.04,9.18Z"/><path class="cls-2" d="m569.72,136.16c11.41-9.58-.4,15.3.22,20.7.63,5.4-5.75-.59-10.52-9.43-4.77-8.84-9.23.13-11.81-4.09-2.58-4.22-5.58-8.47,15.32.86,0,0-4.62,1.53,6.79-8.05Z"/><path class="cls-2" d="m251.98,117.58c-1.9,2.17-24.92-3.61-20.49.99,4.43,4.6,11.76,5.25,5.66,16.86-6.1,11.61-42.69,37.07-21.32,32.42,21.37-4.65,42.7-20.24,50.79-23.73,8.09-3.49,17.38-3.61,22.02-1.79,4.64,1.81,10.77-2.32-1.67-12.3-12.43-9.98-12.3-15.29-26.61-29.17-14.31-13.89-6.49,14.56-8.39,16.73Z"/><path class="cls-2" d="m390.58,158.65c12.15-.2-15.68-6.16-16.09-10.72-.41-4.56-13.98-10.66-11.58-1.49,2.4,9.17-14.22-1.57-24.04,10.63-9.83,12.2.95,4.01,17.5-2.87,16.55-6.88,3.69.11,3.53,6.36-.16,6.25,3.95,10.35,6.18,5.87,2.23-4.48,12.35-7.58,24.5-7.78Z"/><path class="cls-2" d="m412.82,121.47c-3.3.4-19.47,8.5-14.78,8.64,4.69.14,8.89,1.28,9.45,15.45.56,14.16,4.52,6.71,9.93-2.73,5.41-9.43,21.85-9.44,25.17-10.85,3.32-1.41,2.45-3.97-9.74-4.34-12.2-.37-4.13-3.66-6.84-7.79-2.71-4.12-4.13-3.66-8.31-5.31,0,0-1.58,6.52-4.88,6.92Z"/><path class="cls-2" d="m474.63,87.3c-8.56-3.3-9.12-5.52-4.05,5.47,5.07,10.99-1.88,6.47-12.49,7.7-10.61,1.23-.62,13.75,8.91,12.02,9.53-1.73,27.32,13.53,34.33,22.34,7.02,8.81,4.98-7.81.85-11.46-4.13-3.65-8.38-8-9.39-19.62-1.01-11.62,5-9.6-3.92-14.98,0,0-5.67,1.85-14.24-1.45Z"/><path class="cls-2" d="m374.42,101.92s-9.74-1.96-11.9,1.85c-2.16,3.82,7.69,1.34,11.23,3.99,3.54,2.64.13,14.42,8.26,19.11,8.12,4.68-2.35-8.39-1.68-14.47.68-6.08,6.78,7.97,13.43,9.84,6.65,1.87,2.95-14.09.82-11.62-2.13,2.47-14.6-4.64-10.91-7.86,3.69-3.21-5.46-7.93-8.58-6.92-3.12,1.01-.68,6.08-.68,6.08Z"/><path class="cls-2" d="m915.88,308.28s3.38.86,1.99.06c-1.39-.8-.28-2.91-1.1-2.69-.83.23-.89,2.63-.89,2.63Z"/><path class="cls-2" d="m916.73,313.02c2.45.45,3.84,1.13,2.34.2-1.5-.93-.43-1.53-2.66-1.47,0,0-2.13.82.32,1.27Z"/><path class="cls-2" d="m918.05,310.52c1.66-.71.02-.76-1.98-.44,0,0,.32,1.15,1.98.44Z"/><path class="cls-2" d="m912.45,312.68s-.65-.93-1.85-.6l1.85.6Z"/><path class="cls-2" d="m914.87,309.42c1.66-.71.02-.76-1.98-.44,0,0,.32,1.15,1.98.44Z"/><path class="cls-2" d="m912.23,314.36c.45.77,3.67,3.14,2.17,2.21-1.5-.93-.62-3.05-2.02-3.47,0,0-.6.49-.15,1.26Z"/><path class="cls-2" d="m910.22,316.57c1.66-.71.02-.76-1.98-.44,0,0,.32,1.15,1.98.44Z"/><path class="cls-2" d="m902.15,330.39c.51-.22,0-.23-.61-.13,0,0,.1.35.61.13Z"/><path class="cls-2" d="m904.93,319.36s-.12-1.83-.96-2.04l.96,2.04Z"/><path class="cls-1" d="m332.1,92.42c.84-.14,1.58-.22,1.61,1.04.03,1.16-.96,2.07-1.77,2.4-.13,3-.18,5.22-.03,5.56.54,1.17,14.55-1.75,18.97.94,4.42,2.68-4.02,7.72-14.84,8.26-2.63.13-6.54,0-8.05,5.22,2.62,1.42,2.62,2.09,1.67,3.62-.56.9-1.81,1.02-2.84.94l-.93,3.41c.93.32,1.58.84,1.31,1.87-.26.97-1.48,1.89-2.45,2.11-2.28,7.71-5.14,16.05-6.59,16.01-2.34-.07-8.03,1.86-7.39-.73.64-2.6,6.31-31.06,4.11-31.57-2.2-.51-9.11-.75-10.53.3-1.42,1.04-3.56,5.75-5.14,5.56-1.57-.18-2.44-.89-2.41-2.15.03-1.26,2.67-7.91,2.02-8.44-.65-.53-3.91-7.81-3.06-8.77.85-.96,2.85-1.29,3.59-.11l2.43,2.51c1.02-3.08,1.42-3.28,2.47-3.04,1.2.28.76,5.39.76,7.44,1.38.21,10.37-.84,13.04-2.7,2.67-1.86,6.03-20.81,6.67-23.41.64-2.6,6.69-2.69,7.67-2.63.33.02.32,2.79.19,6.5,1.1.05,1.48.86,1.06,1.79-.26.58-.77.95-1.19,1.17l-.34,6.9Z"/><path class="cls-1" d="m555.31,161.64l.62-.64c1.14.67,1.09,1.96,1.93,1.17.24-.23.41-.49.07-1.29-.89-2.09-.34-3.46-.84-3.98-.04-.04-.66-1.92-.86-1.16-.2.77-1.03.58-1.3-.07-.26-.65-.6,3.87-2.95,3.12,0,0-1.05-1.28-1.2-1.27,0,0,.02-.08,0-.61-.03-.58.66-.51.5-.97.14-.14-.09-.26.22-.54-.31-.69-.11-.86-.27-1.08-.76-1.06-1.3-.66-1.95-.18-.15.11-.48.91-.48.91-.13.94.36,1.37.17,1.59-.12.64-.95.87-1.03,1.51-.01.1-.06.74-.08.85-.12.55.24,1.4.57,1.8l-.22.05c-.52.56-.92.78-.78,1.55,0,0-1.55,2.07-2.52,1.57-2.55-1.3-6.28-.81-3.7,3.1l.62.27c-.52.06-1.03.76-.99,1.24.02.27.29.55.17.8-.04.08-.22-.25-.22-.16-.04,2.97,2.86-.9,3.02-1.24.09-.19.03-.85.1-.65.21.52,1.61,1.75,1.11,1.47-.18-.1-.48.16-.47.32.01.81.65.95.89,1.69.11.32-.16,1.19-.04,1.35.19.25.69.11.72.63l1.49.52c.14-.14.42-.16.44-.37l.54.9c.2.02.58,0,.61-.2.09-.7-.42-1.98-.94-2.46-.57-.53-.93-1.12-1.57-1.53l.12-.23c.61-.19,1.62-1.88,1.72-1.18.05.35-.16.91.13,1.08.57.32,1.61,1.29,1.55.38-.03-.5-.65-1.63-.21-1.46,1.41.55,2.51-.97,3.24.11.32.47.68.93,1.08,1.31l.05.25c.44.48,1.39.94,1.37,1.64-.01.43.14.89.39,1.23l.58.12-.05.49c.44.45,2.52.99,2.24.29-.62-1.57-5.09-6.92-3.67-6.32.94.4,1.52-.64,2.17.07.45.5,1.44,1.93.8,1.9l.36,1.47.37.15c.28-.32.69-.59.81-1.01.48-1.61-.96-3.74-2.29-4.35l-1.25.12c.06-.14.1-.42-.01-.55l.12-1c-.65-1.17-.67-.33-.86-1.82l-.11-.71Z"/><path class="cls-1" d="m647.89,189.84c.81,3.73,3.78,13.84,3.2,14.83-1.22-1.08-3.43-12.22-3.43-12.22-1-.07-5.69,13.7-5.29,14.4.4.7,7.1-1.46,7.59-1.26.57.73.16.76-.4,1-.56.25-8.62,2.1-9.87,1.83-1.42.51,3.07,3.91,5.64,4.93,2.89,1.15,15.73-1.62,19.31-3.21,2.97-1.33,2.69-3.84,2.42-6.77-2.73.31-8.75,2.84-9.37,1.76-.5-.87,4.16-2.24,5.47-2.57,1.13-1.19-13.78-12.19-15.28-12.72Z"/><path class="cls-1" d="m195.39,186.65c5.75,15.32,24.68,56.2,22.85,60.85-5.87-3.71-22.2-49.57-22.2-49.57-4.31.43-15.7,62.45-13.57,65.13,2.13,2.69,29.33-11.31,31.53-10.82,2.87,2.68,1.15,3.11-1.07,4.56-2.22,1.45-35.4,15.15-40.87,14.89-5.73,3.21,15.49,14.45,27.1,16.95,13.03,2.81,66-18.22,80.21-27.58,11.84-7.8,9.05-18.3,6.08-30.57-11.42,3.26-35.5,18.39-38.81,14.23-2.65-3.34,16.32-12.55,21.7-14.9,4.06-5.86-66.25-41.97-72.96-43.15Z"/><path class="cls-1" d="m464.04,151.14c-4.93-3.84-8.96-17.86-9.42-23.52-.46-5.67.12-7.56.93-8.36.82-.8,5.58,8.2,11.64,12.41,3.26,2.27,5.69,5.37,7.29,8.07,1.5,2.52,4.83,2.73,6.59.42,2.09-2.74,4.28-5.6,5.16-5.67,1.62-.12,1.61,11.49-.87,12.85,4.45.1,6,4.38,5.87,4.56-1.45,2.06-7.37,3.31-9.27,5.09-1.9,1.78-5.49,3.12-9.94,2.33-4.45-.79-4.16-.61-4.57-.32s-5.97,4.23-9.28,2.53c-3.31-1.69-3.82-3.95-2.83-4.42s9.78-5.14,8.7-5.98Z"/><path class="cls-1" d="m269.09,187.6s6.78,14.21,17.19,23.61c10.42,9.4,27.84,11.35,28.95,10.52,1.1-.82-15.2-32.65-11.7-36.6,3.5-3.94,17.48-3.47,18.12-3.43,1.09.06,1.02-.92.7-1.26-.3-.32-2.14-1.72-3.06-2.66s-6.01-5.21-11.57-4.89c-2.88.16-8.27-3.48-20.4-3.56-14.09-.09-18.77,5.7-23.39,7.03-4.61,1.33-20.71-1.55-23.49-1.08-2.78.48-4.08,11.79,3.18,14.94,7.26,3.16,15.61-2.2,17.35-2.74,1.74-.54,8.12.1,8.12.1Z"/><path class="cls-1" d="m581.65,159.55c.62,5.48,2.04,16.62,5.06,18.77,1.4-.88,3.92-.9,4.4.95,2.89,1.77-2.92.11-2.81,2.23,1.77,1.71,6.36,4.22,9.39,5.27.72.25.63,1.37-.11,1.51-4.23.78-12.7,2.58-16.81-3.2-1.94-2.47-4.59-2.57-6.62-.33-3.06.23-4.15-3.74-3.61-6.52,1.91-2.49,4.85.62,6.58-1.16-.33-1.65-4.57-8.39,3.21-17.88.44-.53,1.23-.34,1.31.37Z"/><path class="cls-1" d="m441.15,78.23s-6.38,4.14-12.75,7.22c-2.59,1.25-10.64,5.01-10.85,4.9-.12-.06-.47-6.15-.04-6.48,0,0,8.76-3.63,12.83-6.43.78-.53.27-3.08,1.02-3.72,3.23-2.74,5.34-4.29,6.12-3.08,1.53,2.36,3.68,7.59,3.68,7.59Z"/><path class="cls-1" d="m460.68,65.57s-3.07,18.76-15.7,26.81c-12.47,7.94-35.21,12.87-40.04,9.88-4.83-2.99-8.8-7.5-8.8-7.5l3.09-.54s.71,1.06,4.56.86c11.73-.6,38.82-13.09,56.9-29.51Z"/><path class="cls-1" d="m416.7,85.64v1.51s-11.54,5.6-12.24,6.06c-.7.46-1.97,1.23-2.19.95-.22-.28,14.43-8.52,14.43-8.52Z"/><path class="cls-1" d="m458.81,65.98l-1.69,1.76s-15.3,6.93-16.19,7.4c-.72-.65-.55-1.34-.55-1.34,0,0,16.76-7.95,18.44-7.82Z"/><path class="cls-1" d="m863.17,249.36c-.02-1.16-.2-2.41-.2-2.41l.32-.77c-.12-.1-.58.11-.84.2-.2.07-1.86.08-2.78.08,0-.03.02-.05.02-.05-.1-.46-.39-1.06-.58-.73-.13.22-.28.43-.33.73-.26-.07-.55-.2-.7-.24-.23-.05-.31.1-1.04-.12-.73-.21-2.8-2.06-3.28-2.47-.49-.41-1.37-.26-1.99-.12-.08.02-.16.06-.23.1-.08-.06-.26-.17-.44-.15-.16.02-.42.2-.56.44-.15.26-.4,1.24-.44,1.36-.02.06-.4.84-.75,1.55-.75,0-1.35.01-1.69.02l.85-1.91s.42-.28.54-.94c.11-.66-.54-1.18-.62-1.3-.08-.12.28-.66-.08-1.19-.35-.53-1.55-2.48-1.99-2.46-.45.02-3.1-1.17-3.47-1.33-.37-.16-1.03-.72-1.88-1.18-.85-.46-2.35.21-2.63.11-.27-.1-.49-.13-.69-.03-.2.1-.75-.31-.96.45-.21.76-.34,1.09-.47,1.18-.13.1-.26.19-.42.25-.16.06-.58.3-.58.3l-.99,2.24c-.09.19,0,.42.17.51l.72.37c-.42.97-.04,2.12.86,2.58.9.46,1.97.05,2.4-.91l4.51,2.31c-.43.97-.05,2.13.85,2.59.9.46,1.98.05,2.41-.92l.62.32c.18.09.39.01.48-.18l.09-.21c.36,0,.94,0,1.65-.01-.14.28-.25.49-.27.53-.08.13.12.04,0,.36-.13.32-.09.46-.09.46,0,0,.47-.56.58-.69.05-.06.23-.34.44-.66.12,0,.24,0,.36,0-.18.15-.39.35-.56.63-.19.31-.7,1.61-.74,1.68-.17.26-.21.41-.31.52-.19.21-.1.44.32.75.43.31.37-.13.37-.13,0,0,.04-.23.04-.49,0-.23.44-1.09.66-1.51.06.44.16.98.13,1.58-.03.45-.08.75-.08.75,0,0-.35.58.62.73.22.03.15-.84.11-1.07-.06-.34-.11-1.98.16-2.31.25-.3.82-.8,1.23-1.16h0s0,0,0,0c.21,0,.42,0,.63,0,.11.26.3.63.63.99,1.02,1.15,3.29,1.55,3.29,1.55,0,0-1.22,2.34-1.55,2.76-.32.4-.58.61-.76.94-.18.33.37.78.48.83.26.1.3-.67.45-.84.08-.09.71-.86,1.38-1.61-.11.43-.35,1.32-.47,1.61-.09.22-.32.68-.33.75-.05.36-.13.41.14.57.19.11.45.18.56.06.11-.12-.12-.29.06-.81.32-.9,1.1-2.85,1.36-3.49.08-.06.16-.1.22-.13.47-.16.8-.54,1.05-.87.04.23.08.39.12.41.17.09.54.22.64-.09.08-.26.04-.6-.03-.92.67-.31,1.73-.63,1.73-.63,0,0,.18.38.22,1.11.02.43,1.36.53,1.35-.2Zm-12.59-2.6c-.17,0-.33,0-.49,0,.14-.22.24-.39.27-.43.08-.13.21-.56.22-.74,0-.06.05-.15.12-.26,0,.42.12.98-.01,1.22-.03.05-.07.12-.11.2Z"/><path class="cls-1" d="m735.57,218.56c-.75-.26-1.59-.15-1.9.2-.14.16-1.51,1.71-1.61,2.79-.14,1.56.85,4.57,1.85,5.04s.44.83.93,2.23,1.23,1.72.84,2.33-2.12,2.34-2.7,3.13c-.24.32.08,1.52.59,1.93.83.66.63-.88.58-1.3s2.03-2.08,2.25-2.35c.5-.65.35,2.41.27,2.81-.11.6-.39,1.34.45,1.13.35-.09,1.45.53,1.6-.08.13-.53-1.05-.86-.73-.92.04,0,.07-.05.07-.1-.08-1.14-.2-1.97.02-2.44.23-.48.54-.99.51-1.46s-.16-1.51-.36-2.02c0,0,.18-.94.23-1.86.07-1.22.19-2.4.22-3.2.02-.54,0-2.11.43-2.55.43-.44,1.83-.74,2.07-1.47s-.18-3.01-.88-2.72-2.05.5-2.15,1.63c-.05.54-2.57-.76-2.57-.76Z"/><path class="cls-1" d="m514.74,110.43c2.99-.42,12.36-5.55,17.22-1.29,4.86,4.26,2.53,7.13,1.54,8.51-.53-2.11-1.71-4-3.83-3.83-3.16.25-5.38,3.77-3.27,6.59,2.38,3.17,7.87,3.58,10.6,3.58.36,0,.57.46.32.73-.89.99-1.68,3.18-.32,8.03,2.42,8.6-21.5-7.88-28.29-18.1-1.13-1.7.01-4.18,1.95-4.05,1.29.09,2.65.02,4.08-.18Z"/><path class="cls-1" d="m591.34,157.02l-1.07.85c-.11.09-.13.26-.05.38l1.28,1.68c.09.12.54.13.64.03l1.16-.84c1,.88,2.22,1.75,3.52,2.55,5.13,3.13,21.15,11.26,21.15,11.26,3.78,1.84,7.69,1.29,8.75-1.22s-1.16-6.02-4.94-7.86l-5.19-2.14.12-2.67c.08-.58-.22-1.14-.73-1.35l-6.78-2.5c-.51-.21-1.08-.02-1.39.47l-1.17,1.95-8.11-3.34c-1.08-.52-2.13-.91-3.1-1.14l-.09-2.28c0-.17-.11-.32-.27-.36l-1.53-.43c-.2-.06-.4.08-.44.29l-.49,2.52c-1,.12-1.72.55-2.03,1.29-.34.8-.02,1.8.74,2.86Z"/><path class="cls-1" d="m200.24,304.34c-23.87-1.79-40.61-27.51-40.61-27.51,0,0-26.03,20.54-39.22,23.63-26.47,6.19-40.54,8.41-83.56,4.82,0,0,25.28,11.98,43.56,14.33,18,2.31,37.46,3.63,47.37,4.41,38.72,3.03,83.29-6.04,113.1-26.56-13.38,3.6-26.71,7.92-40.64,6.88Z"/><path class="cls-1" d="m315.69,313.65c-21.16-13.91-20.82-37.86-2.07-32.76-6.36-13.54-20.7-11.55-31.97-6.36-8.6,3.95-34.77,29.23-59.65,39.65-21.59,9.04-62.99,20.99-103.79,14.09,18.53,11.53,60.65,9.88,84.8,5.56,31.29-5.61,44.31-12.16,72.68-28.4,4.79,7.38,10.95,13.74,18.32,18.02,27.45,15.96,77.14,8.82,94.28-20.06-7.08,5.76-17.27,9.25-25.76,12.01-13.32,4.32-34.18,6.57-46.83-1.74Z"/><path class="cls-1" d="m425.16,262.96c-5.24,9.27-10.72,18.38-16.75,27.08-13,18.77-27.67,35.64-48.91,43.02-22.09,7.67-44.23,6.03-64.77-5.38,0,0,26.75,21.48,58.71,27.86,27.42,5.47,57.81,1.03,83.89-8.9,26.07-9.93,45.62-27.49,65.98-47.46-5.77.27-11.07-1.07-16.65-2.41-22.42-5.41-41.13-15.17-61.48-33.79Z"/><path class="cls-1" d="m454.44,344.83c-43.23,22.71-81.71,22.27-109.63,15.39-28.85-7.11-51.32-25.3-71.81-47.97-6.16,5.8-29.3,18.58-48.43,23.44-15.5,3.93-28.44,10.33-60.86,8.42-24.22-1.42-42.6-8.38-63.14-17.7,12.22,14.2,33.64,30.98,68.23,34.14,39.18,3.59,66.67-1.64,92.86-7.41,42.93,38.59,113.82,40.99,141.14,41.48,21.69.39,38.94-.18,61.99-8.56,20.88-7.6,47.13-25.83,62.43-43.06,52.78,43.21,108.98,5.65,108.98,5.65,0,0-64.52,10.65-96.5-61.37-27.37,9.91-65.68,47.26-85.27,57.55Z"/><path class="cls-1" d="m804.44,312.47c-10.57-.44-36.73-1.83-47.31-1.41-34.86,1.46-63.36,8.82-90.62,23.14v.13c-20.21,10.05-80.38,19.6-120.72-49.47,24.33-15.98,24.28-22.04,50.4-25.56-2.16,25.86,15.43,33.91,24.93,36.93,14.47,4.68,34.76-3.17,43.97-3.92,29.99-4.58,55.38,2.17,62.92,3.03,31.96,3.73,52.42,9.34,76.44,17.13Z"/><path class="cls-1" d="m963.14,366.47c-1.85-.27-54.43-5.99-86.94-8.59-19.81-1.59-38.3,1.55-66.43,3.26-29.77,1.82-60.7,8.28-88.21,21.33-17.75,8.4-33.21,18.09-52.46,28.4v-.04c-20.35,8.46-30.78,11.02-43.2,13.88-71.77,16.64-133.45,2.07-176.58-3.55,57.66,3.37,112.57-3.48,142.01-11.27,28.14-7.43,49.72-17.23,76.57-34.3v-.3c16.75-10.47,32.65-20.99,62.74-32.55,49.88-19.16,87.46-16.09,167.93,4.37,21.42,5.44,43.07,14.36,64.56,19.36Z"/><path class="cls-1" d="m828.8,326.87c-.28.01-61.79-9.9-114.29,12.63-18.9,8.11-29.82,13.22-46.99,24.66v.26c-29.53,21.65-66.26,35.14-102.83,43.89-19.75,4.74-48.2,7.92-68.38,8.11-27.14.29-91.33-2.39-130.51-17.46,44.57,5.52,76.53,1.08,98.63-6.42,21.66-7.35,56.26-31.95,63.34-42.51,7.07,9.28,43.59,30.69,95.54,11.95,14.81-5.36,29.4-12.65,43.47-20.04v-.21c26.75-13.96,34.92-14.84,45.46-17.67,22.87-6.11,76.71-13.56,116.58,2.82Z"/><path class="cls-1" d="m258.42,365.28c-14.53,3.87-26.19,4.22-44.61,6.07-23.11,2.32-48.71-1.65-69.76-10.58,0,0,34.56,41.65,107.73,50.37,29.59,3.53,68.21,4.29,88.57-15.68-36.49-3.91-65.06-15.35-81.93-30.18Z"/></svg>